<svg class="ionicon" width="448.06357" height="447.88727" version="1.1" viewBox="0 0 448.06357 447.88727" xmlns="http://www.w3.org/2000/svg">
 <path d="m419.14538 341.92349c-15.88-16-54.34-39.35-73-48.76-24.3-12.24-26.3-13.24-45.4 0.95-12.74 9.47-21.21 17.93-36.12 14.75s-47.31-21.11-75.68-49.39-47.34-61.62-50.53-76.48 5.41-23.23 14.79-36c13.22-18 12.22-21 0.92-45.3-8.81-18.900002-32.84-57.000002-48.9-72.800002-17.179996-16.97-17.179996-13.97-28.249996-9.37a160.15 160.15 0 0 0-25.83 13.77c-16 10.63-24.88 19.46-31.09 32.73s-9 44.380002 23.07 102.64 54.57 88.05 101.14 134.49c46.57 46.44 82.38 71.41 134.73 100.77 64.76 36.27 89.6 29.2 102.91 23s22.18-15 32.83-31a159.09 159.09 0 0 0 13.8-25.8c4.61-11.03 7.61-11.03-9.39-28.2z" fill="none" stroke="#fff" stroke-miterlimit="10" stroke-width="32"/>
</svg>
