<svg width="333.3335" height="332.11249" version="1.1" viewBox="0 0 333.33349 332.11248" xml:space="preserve" xmlns="http://www.w3.org/2000/svg"><defs><clipPath id="a"><path d="m0 700h700v-700h-700z"/></clipPath></defs><g transform="matrix(.666667 0 0 -.66666633 -66.6667 399.9998)"><g clip-path="url(#a)"><g transform="translate(600,350)"><path d="m0 0c0 138.071-111.929 250-250 250s-250-111.929-250-250c0-117.245 80.715-215.622 189.606-242.638v166.242h-51.552v76.396h51.552v32.919c0 85.092 38.508 124.532 122.048 124.532 15.838 0 43.167-3.105 54.347-6.211v-69.254c-5.901 0.621-16.149 0.932-28.882 0.932-40.993 0-56.832-15.528-56.832-55.9v-27.018h81.659l-14.028-76.396h-67.631v-171.773c123.786 14.951 219.713 120.351 219.713 248.169" fill="#fff"/></g></g></g></svg>
