<svg width="1066.6666" height="1066.6666" version="1.1" viewBox="0 0 1066.6667 1066.6667" xml:space="preserve" xmlns="http://www.w3.org/2000/svg"><g transform="matrix(1.3333333,0,0,-1.3333333,-149.33333,1202.6666)"><g transform="scale(.1)" fill="#fff"><path d="m2825.22 1020h-0.1c-164.12 0.07-312.34 128.77-319.54 307.32-0.04 0.87-0.07 1.73-0.1 2.6 0 0.21-0.01 0.42-0.02 0.63l-21.79 711.52c-2.67 87.68-42.11 169.6-107.45 228.08-778.3 696.01-1256.22 1703.7-1256.22 2869.84 0 2229.45 1746.68 3880.01 4e3 3880.01s4e3 -1650.56 4e3 -3880.01c0-2229.44-1746.68-3880-4e3 -3880-404.73 0-793.04 53.44-1157.88 153.76l-1.44 0.39c-27.36 7.39-55.37 11.06-83.31 11.07h-0.17c-42.69-0.01-85.21-8.58-125.01-25.53-1.24-0.53-2.47-1.07-3.71-1.61l-793.95-350.48c-0.22-0.1-0.43-0.19-0.66-0.29-42.48-18.64-86.1-27.29-128.61-27.3h-0.04m1576.05 5129.61c-198.43 0-393.54-98.12-508.26-280.14l-1175-1864.17c-87.96-139.56 26.54-292.95 161.12-292.95 37.93 0 77.45 12.18 114.49 40.29l1262.14 957.88c42.88 32.55 93.99 48.84 145.11 48.84 50.65 0 101.32-16 143.99-48l934.56-700.92c108.3-81.24 234.45-120.09 359.32-120.08 198.42 0.01 393.53 98.13 508.25 280.15l1175.01 1864.17c87.95 139.58-26.54 292.96-161.14 292.96-37.92 0-77.45-12.19-114.49-40.29l-1262.13-957.89c-42.89-32.54-93.99-48.83-145.1-48.83-50.66 0-101.32 16-144 48.01l-934.54 700.91c-108.32 81.23-234.47 120.06-359.33 120.06"/><path d="m2825.22 1020h-0.1 0.1m0.04 0c42.51 0.01 86.13 8.66 128.61 27.3-42.49-18.65-86.09-27.29-128.61-27.3m129.27 27.59 793.95 350.48-793.95-350.48m2165.47 212.4c-404.73 0-793.04 53.44-1157.88 153.76l-1.44 0.39 1.44-0.39c364.84-100.32 753.15-153.76 1157.88-153.76 2253.32 0 4e3 1650.56 4e3 3880 0-2229.44-1746.68-3880-4e3 -3880m-2614.42 67.33c-0.04 0.87-0.07 1.73-0.1 2.6 0.03-0.87 0.06-1.73 0.1-2.6m-0.12 3.23-21.79 711.52c-2.67 87.68-42.11 169.6-107.45 228.08-778.3 696.01-1256.22 1703.7-1256.22 2869.84 0-1166.14 477.92-2173.83 1256.22-2869.84 65.34-58.48 104.78-140.4 107.45-228.08l21.79-711.52m1246.73 69.13c39.8 16.95 82.32 25.52 125.01 25.53-42.68-0.01-85.21-8.59-125.01-25.53m125.18 25.53h-0.07 0.07"/><path d="m7522 6034.68-1175-1864.17c-186.92-296.55-587.16-370.41-867.58-160.07l-934.56 700.92c-85.75 64.3-203.72 63.96-289.1-0.84l-1262.14-957.88c-168.46-127.84-388.36 73.77-275.61 252.66l1175 1864.17c186.91 296.56 587.15 370.4 867.59 160.08l934.54-700.91c85.74-64.32 203.71-63.98 289.1 0.82l1262.13 957.89c168.47 127.84 388.37-73.76 275.63-252.67zm-2402 2985.32c-2253.32 0-4e3 -1650.56-4e3 -3880.01 0-1166.14 477.92-2173.83 1256.22-2869.84 65.34-58.48 104.78-140.4 107.46-228.08l21.78-711.52c6.97-226.97 241.4-374.64 449.07-282.96l793.95 350.48c67.3 29.67 142.72 35.19 213.64 15.68 364.84-100.32 753.15-153.76 1157.88-153.76 2253.32 0 4e3 1650.56 4e3 3880 0 2229.45-1746.68 3880.01-4e3 3880.01"/></g></g></svg>
