<?xml version="1.0" encoding="UTF-8" standalone="no"?>
<!-- Created with Inkscape (http://www.inkscape.org/) -->

<svg
   width="493.6232mm"
   height="493.10303mm"
   viewBox="0 0 493.6232 493.10303"
   version="1.1"
   id="svg1"
   xml:space="preserve"
   inkscape:version="1.3.2 (091e20e, 2023-11-25, custom)"
   sodipodi:docname="logo1.svg"
   xmlns:inkscape="http://www.inkscape.org/namespaces/inkscape"
   xmlns:sodipodi="http://sodipodi.sourceforge.net/DTD/sodipodi-0.dtd"
   xmlns="http://www.w3.org/2000/svg"
   xmlns:svg="http://www.w3.org/2000/svg"><sodipodi:namedview
     id="namedview1"
     pagecolor="#ffffff"
     bordercolor="#000000"
     borderopacity="0.25"
     inkscape:showpageshadow="2"
     inkscape:pageopacity="0.0"
     inkscape:pagecheckerboard="0"
     inkscape:deskcolor="#d1d1d1"
     inkscape:document-units="mm"
     inkscape:zoom="0.25116433"
     inkscape:cx="1827.4888"
     inkscape:cy="1015.2716"
     inkscape:window-width="1920"
     inkscape:window-height="1009"
     inkscape:window-x="-8"
     inkscape:window-y="-8"
     inkscape:window-maximized="1"
     inkscape:current-layer="layer1" /><defs
     id="defs1" /><g
     inkscape:label="Layer 1"
     inkscape:groupmode="layer"
     id="layer1"
     transform="translate(563.17707,172.92138)"><path
       style="fill:#000000"
       d="m -329.42885,319.17853 -3.83646,-0.22273 -1.85208,-0.28894 -1.85208,-0.28894 -4.51654,-0.23726 -4.51654,-0.23725 -2.42597,-0.54038 -2.42598,-0.54038 h -1.1056 -1.10561 l -1.74147,-0.29713 -1.74146,-0.29713 -0.28022,-0.22251 -0.28022,-0.22251 -2.6302,-0.24869 -2.63019,-0.24868 -1.45521,-0.55446 -1.45521,-0.55445 -1.37661,-1.4e-4 -1.37662,-1.3e-4 -0.60776,-0.24306 -0.60776,-0.24306 -0.52917,-0.1886 -0.52916,-0.18861 -0.79375,-0.10096 -0.79375,-0.10095 -3.175,-0.78243 -3.175,-0.78243 -1.11967,-0.17321 -1.11967,-0.1732 0.12596,-0.20381 0.12596,-0.20381 -0.41699,-0.16002 -0.417,-0.16002 -0.70596,-0.009 -0.70597,-0.009 -1.45521,-0.53781 -1.4552,-0.53781 -1.32292,-0.27049 -1.32292,-0.27049 -0.46302,0.007 -0.46302,0.007 v -0.24053 -0.24052 l -1.91823,-0.57347 -1.91823,-0.57347 -0.26458,-0.19699 -0.26458,-0.19699 -1.38198,-0.29118 -1.38197,-0.29117 -0.99536,-0.53348 -0.99536,-0.53348 h -0.74891 -0.74892 l -0.57246,-0.30637 -0.57246,-0.30637 -0.35509,-0.35509 -0.35508,-0.35509 h -0.73545 -0.73544 l -1.24165,-0.66019 -1.24164,-0.66019 -1.04191,-0.1666 -1.04191,-0.16661 0.13511,-0.21863 0.13512,-0.21863 -1.13211,-0.31316 -1.13212,-0.31316 -0.70852,-0.28506 -0.70852,-0.28505 0.15661,-0.25341 0.15661,-0.2534 -0.44027,0.16895 -0.44028,0.16895 v -0.22625 -0.22625 l -0.8599,-0.16674 -0.85989,-0.16674 -0.3191,-0.0397 -0.31909,-0.0397 0.1285,-0.2079 0.12849,-0.20791 -1.26461,-0.37725 -1.26461,-0.37725 -0.98348,-0.58237 -0.98348,-0.58237 -0.33944,0.19571 -0.33943,0.19571 0.1919,-0.21228 0.19191,-0.21228 -1.17197,-0.62389 -1.17198,-0.62389 h -0.50561 -0.5056 l -0.63099,-0.49277 -0.631,-0.49277 -0.66146,-0.2034 -0.66145,-0.2034 -0.73715,-0.51927 -0.73715,-0.51926 -0.32119,-0.0575 -0.32118,-0.0575 -0.57087,-0.19234 -0.57087,-0.19235 -0.14843,-0.3868 -0.14843,-0.38681 h -0.64946 -0.64947 l -0.78609,-0.66145 -0.7861,-0.66146 h -0.28455 -0.28455 l -2.95662,-1.65365 -2.95661,-1.65364 -2.27689,-1.24393 -2.27689,-1.24393 0.0882,-0.34357 0.0882,-0.34357 -0.18711,0.1871 -0.1871,0.1871 -1.02557,-0.52321 -1.02557,-0.52321 v -0.20605 -0.20606 l -0.92604,-0.33486 -0.92605,-0.33486 v -0.20727 -0.20728 l -1.05833,-0.47724 -1.05833,-0.47724 v -0.2008 -0.20079 l -1.19063,-0.57638 -1.19062,-0.57637 v -0.24098 -0.24098 h -0.37798 -0.37797 l -0.34963,-0.34063 -0.34963,-0.34063 -0.99239,-0.60711 -0.99238,-0.60712 -0.33053,-0.44131 -0.33053,-0.44132 h -0.292 -0.292 l -0.73345,-0.52917 -0.73344,-0.52917 -0.69435,-0.55809 -0.69435,-0.55808 -0.87351,-0.44794 -0.8735,-0.44793 -0.14641,-0.38152 -0.1464,-0.38152 -0.19861,0.12274 -0.19861,0.12275 -1.03044,-0.86969 -1.03043,-0.86969 -2.09557,-1.56968 -2.09557,-1.56968 -1.21172,-0.90296 -1.21173,-0.90296 -0.13229,-0.17026 -0.13229,-0.17027 -1.24824,-0.94173 -1.24824,-0.94173 0.16786,-0.16786 0.16786,-0.16786 h -0.40234 -0.40234 l -0.6609,-0.59531 -0.66091,-0.59531 -1.63457,-1.44446 -1.63456,-1.44447 -0.26079,-0.16117 -0.26079,-0.16118 -1.90104,-1.70165 -1.90104,-1.70165 -2.26207,-2.0906 -2.26206,-2.09059 -5.29166,-5.36499 -5.29167,-5.36499 -1.85208,-2.04834 -1.85209,-2.04834 -0.85989,-0.90369 -0.8599,-0.90369 v -0.19063 -0.19063 l -1.8508,-1.96947 -1.8508,-1.96946 -0.001,-0.22651 -0.001,-0.2265 -0.66146,-0.5203 -0.66146,-0.52031 v -0.24538 -0.24538 l -0.46302,-0.50247 -0.46302,-0.50247 -0.71818,-0.88659 -0.71817,-0.88659 -0.80677,-1.05834 -0.80677,-1.05833 -0.66555,-0.74044 -0.66555,-0.74044 0.18239,-0.31789 0.1824,-0.3179 -0.20984,0.18947 -0.20984,0.18946 -0.45764,-0.58634 -0.45765,-0.58634 -0.18481,-0.58993 -0.18481,-0.58994 -0.29798,0.0608 -0.29797,0.0608 -0.41351,-0.80765 -0.4135,-0.80765 -0.59531,-0.58141 -0.59532,-0.58141 v -0.36857 -0.36857 l -0.39687,-0.15229 -0.39688,-0.1523 v -0.2945 -0.29451 l -0.99218,-1.22026 -0.99219,-1.22027 0.39687,0.20317 0.39688,0.20318 -0.70835,-0.55683 -0.70835,-0.55683 -0.17672,-0.80463 -0.17673,-0.80463 -0.14224,0.14224 -0.14224,0.14223 -0.49404,-0.62807 -0.49404,-0.62807 v -0.42959 -0.42959 l -0.39687,-0.1523 -0.39688,-0.1523 v -0.31241 -0.31242 l -0.783,-0.91604 -0.783,-0.91605 -0.0108,-0.3187 -0.0107,-0.31871 -0.59531,-0.60734 -0.59532,-0.60734 -0.46568,-0.92604 -0.46568,-0.92604 -0.70037,-1.19062 -0.70038,-1.19063 -0.67399,-1.05833 -0.67399,-1.05834 -0.50591,-0.92604 -0.50592,-0.92604 -0.52224,-1.02894 -0.52224,-1.02893 -0.50524,-0.54231 -0.50523,-0.54231 v -0.28556 -0.28557 l -0.67418,-0.99214 -0.67418,-0.99215 0.16063,-0.2599 0.16062,-0.2599 -0.21405,-0.002 -0.21405,-0.002 -0.50829,-0.85823 -0.50829,-0.85822 -0.0656,-0.34453 -0.0656,-0.34453 -0.47998,-0.7138 -0.47997,-0.71381 -0.50982,-1.05833 -0.50983,-1.05833 0.0424,-0.19844 0.0424,-0.19844 h -0.24356 -0.24356 l -0.17161,-0.78132 -0.17161,-0.78133 -0.47052,-0.60773 -0.47053,-0.60774 -0.17596,-0.72075 -0.17595,-0.72074 -0.65437,-0.96427 -0.65437,-0.96427 0.15624,-0.2528 0.15624,-0.2528 -0.51193,-0.57573 -0.51194,-0.57573 -0.3385,-1.18572 -0.33851,-1.18572 -0.5002,-0.6359 -0.50019,-0.63589 v -0.5901 -0.59009 l -0.48429,-0.631 -0.48429,-0.63099 -0.34385,-1.25677 -0.34384,-1.25677 h -0.1861 -0.1861 l -0.0248,-0.33073 -0.0248,-0.33073 -0.35016,-0.9379 -0.35017,-0.93789 -0.42818,-0.65349 -0.42818,-0.65348 -0.18705,-0.85161 -0.18704,-0.85161 0.0862,-0.0822 0.0862,-0.0822 -0.47387,-0.72321 -0.47386,-0.72321 -0.52896,-1.71255 -0.52895,-1.71255 h -0.21799 -0.21799 l -0.1601,-1.16806 -0.1601,-1.16805 -0.53732,-0.95666 -0.53732,-0.95666 v -0.66138 -0.66138 l -0.62773,-1.51338 -0.62773,-1.51339 -0.18559,-1.05833 -0.1856,-1.05833 -0.34701,-0.53978 -0.34702,-0.53978 -0.31299,-1.57689 -0.31299,-1.57689 -0.35684,-0.79375 -0.35684,-0.79375 -0.17925,-1.05833 -0.17924,-1.05833 -0.61147,-1.85209 -0.61146,-1.85208 -0.18322,-1.65364 -0.18323,-1.65365 h -0.20857 -0.20858 l -0.13651,-0.7276 -0.13652,-0.72761 -0.29927,-1.71979 -0.29926,-1.71979 -0.39436,-1.21192 -0.39437,-1.21191 -0.1215,-1.03705 -0.12149,-1.03704 -0.16775,-1.32292 -0.16774,-1.32291 -0.33511,-0.66146 -0.33511,-0.66146 -0.19113,-2.24896 -0.19113,-2.24896 -0.49594,-2.40115 -0.49594,-2.40116 -0.2722,-3.10506 -0.2722,-3.10505 -0.2857,-1.24066 -0.2857,-1.240666 -0.0935,-0.79375 -0.0935,-0.79375 -0.16243,-4.49791 -0.16243,-4.49792 -0.27,-2.24896 -0.27,-2.24896 -0.14248,-8.33437 -0.14248,-8.33438 0.44117,-5.70392 0.44116,-5.70392 -0.0314,-1.04295 -0.0314,-1.04296 0.15859,-2.91041 0.15858,-2.91042 0.37394,-1.71979 0.37393,-1.71979 0.28208,-3.30729 0.28208,-3.307297 0.2846,-1.5875 0.28459,-1.5875 0.21802,-0.264583 0.21801,-0.264583 -0.006,-0.661459 -0.006,-0.661458 0.13879,-1.5875 0.13879,-1.5875 0.53782,-2.116667 0.53783,-2.116666 0.12274,-1.322917 0.12273,-1.322917 0.53118,-1.620018 0.53118,-1.620018 0.1554,-1.395637 0.15541,-1.395636 0.4153,-1.349971 0.4153,-1.34997 0.12703,-1.190625 0.12704,-1.190625 0.53085,-1.156077 0.53084,-1.1560772 0.15386,-1.299046 0.15385,-1.299047 0.21526,-0.133037 0.21526,-0.133037 -0.14905,-0.388402 -0.14904,-0.388402 h 0.24879 0.2488 l 0.0309,-0.330729 0.0309,-0.330729 0.36765,-1.607404 0.36766,-1.607404 0.43054,-0.863043 0.43054,-0.863043 0.30689,-1.559874 0.30688,-1.559875 0.36336,-0.301554 0.36335,-0.301555 v -0.721871 -0.721872 l 0.30205,-0.899377 0.30205,-0.899378 0.35941,-0.417709 0.3594,-0.417708 v -0.831015 -0.831015 l 0.5187,-0.923493 0.51869,-0.9234938 0.42613,-1.465804 0.42612,-1.465804 h 0.22255 0.22255 l 0.18066,-1.124479 0.18066,-1.124479 0.45383,-0.79375 0.45383,-0.79375 0.46428,-1.425134 0.46427,-1.425135 0.3797,-0.379702 0.3797,-0.379702 10e-4,-0.576414 10e-4,-0.576413 0.65185,-1.058334 0.65184,-1.058333 0.008,-0.695207 0.008,-0.695208 0.42444,-0.352252 0.42443,-0.352252 0.26052,-0.672332 0.26051,-0.672332 0.10059,-0.499258 0.10058,-0.499258 0.37379,-0.426784 0.3738,-0.426784 0.18989,-0.661458 0.1899,-0.661458 1.60748,-3.307292 1.60748,-3.307292 0.27211,-0.356534 0.2721,-0.356534 0.0854,-0.559867 0.0854,-0.559867 0.50259,-0.538807 0.50259,-0.538807 0.1757,-0.708132 0.1757,-0.708132 0.50537,-0.457355 0.50537,-0.457354 v -0.506634 -0.506634 l 0.7575,-1.106005 0.75751,-1.106004 0.18758,-0.599155 0.18759,-0.599154 0.28642,0.177014 0.28641,0.177014 -0.17265,-0.279365 -0.17266,-0.279364 0.61629,-1.084992 0.61628,-1.084992 0.15956,0.159558 0.15956,0.159559 0.28086,-1.043024 0.28085,-1.043024 0.53029,-0.479899 0.53028,-0.479899 v -0.332124 -0.332123 l 0.69435,-1.06054 0.69436,-1.060539 -0.0503,-0.173869 -0.0503,-0.173868 0.54873,-0.475911 0.54873,-0.475911 0.28817,-0.826653 0.28817,-0.826654 0.23881,0.147593 0.23881,0.147593 v -0.230757 -0.230758 l 1.10057,-1.835378 1.10058,-1.835379 0.27264,-0.178995 0.27265,-0.178995 0.42935,-0.879338 0.42935,-0.879339 0.30458,0.06297 0.30457,0.06297 -0.13558,-0.35333 -0.13559,-0.353329 0.93886,-1.123738 0.93886,-1.123739 v -0.241963 -0.241963 l 1.67302,-2.192703 1.67303,-2.192702 0.49219,-0.833205 0.49218,-0.833204 0.25692,0.158784 0.25692,0.158783 -0.16043,-0.259584 -0.16044,-0.259585 0.97945,-1.193167 0.97945,-1.193167 0.66146,-0.88672 0.66146,-0.886719 0.46302,-0.406044 0.46302,-0.406044 0.004,-0.271927 0.004,-0.271928 0.72337,-0.849403 0.72338,-0.849402 0.79375,-0.974891 0.79375,-0.97489 0.92604,-1.086124 0.92605,-1.086124 0.19843,-0.08819 0.19844,-0.08819 v -0.261629 -0.26163 l 1.14878,-1.237676 1.14879,-1.237676 1.07385,-1.190625 1.07385,-1.190625 1.2831,-1.445537 1.28309,-1.445538 1.21708,-1.262035 1.21708,-1.262035 -0.10007,-0.100066 -0.10006,-0.100066 1.18991,-0.896528 1.18991,-0.896528 0.008,-0.245134 0.008,-0.245134 3.66879,-3.591321 3.66879,-3.59133 1.44877,-1.32291 1.44877,-1.32292 1.65008,-1.45521 1.65007,-1.45521 0.85376,-0.79375 0.85375,-0.79375 1.33503,-1.19062 1.33503,-1.19063 0.74679,-0.52916 0.74679,-0.52917 0.63886,-0.52917 0.63885,-0.52917 0.7435,-0.66145 0.7435,-0.66146 1.79004,-1.45521 1.79005,-1.45521 0.18614,0.0544 0.18614,0.0544 0.61041,-0.64975 0.61041,-0.64975 h 0.21389 0.21389 l 0.73218,-0.65968 0.73217,-0.65967 0.79375,-0.66292 0.79375,-0.66292 0.22006,-3.2e-4 0.22005,-3.2e-4 1.2348,-0.99219 1.2348,-0.99219 0.33265,-0.31339 0.33265,-0.3134 0.5276,-0.16746 0.5276,-0.16745 v -0.22892 -0.22893 l 0.5276,-0.16745 0.5276,-0.16745 0.3323,-0.32598 0.33229,-0.32598 1.32292,-0.91026 1.32292,-0.91025 0.17724,-0.003 0.17723,-0.003 0.66835,-0.58112 0.66834,-0.58111 0.74192,-0.42118 0.74192,-0.42119 1.05553,-0.7601 1.05553,-0.76011 0.20124,0.12437 0.20124,0.12438 v -0.2802 -0.2802 h 0.26653 0.26653 l 2.11277,-1.45521 2.11277,-1.45521 h 0.39882 0.39883 v -0.2802 -0.28019 l 0.23686,0.14638 0.23686,0.14639 0.13864,-0.36131 0.13865,-0.36131 0.7333,-0.18404 0.73329,-0.18405 0.41256,-0.47361 0.41255,-0.47361 0.66146,-0.20896 0.66145,-0.20897 0.0862,0.0562 0.0862,0.0562 0.49509,-0.57084 0.49509,-0.57084 0.3195,0.19747 0.31951,0.19746 -0.15909,-0.2574 -0.15908,-0.25741 0.91195,-0.32976 0.91196,-0.32977 v -0.26307 -0.26308 l 0.26458,0.16352 0.26458,0.16353 v -0.2719 -0.27189 l 0.36986,0.14193 0.36986,0.14192 0.49004,-0.50417 0.49004,-0.50417 3.70416,-1.84925 3.70417,-1.84925 0.52917,-0.2868 0.52916,-0.2868 1.5875,-0.70975 1.5875,-0.70974 1.22962,-0.63672 1.22962,-0.63673 h 0.53742 0.53742 l 0.40471,-0.4047 0.4047,-0.40471 1.13122,-0.39912 1.13121,-0.39911 0.5335,-0.34668 0.5335,-0.34668 1.38846,-0.33095 1.38845,-0.33095 -0.13399,-0.21681 -0.134,-0.21681 0.86221,-0.17996 0.8622,-0.17996 1.10014,-0.60309 1.10015,-0.60309 1.4134,-0.32639 1.4134,-0.32638 0.31312,-0.3938 0.31313,-0.3938 0.28218,0.1744 0.28219,0.17441 v -0.2802 -0.2802 h 0.68678 0.68678 l 0.70228,-0.39439 0.70229,-0.3944 1.85208,-0.68395 1.85208,-0.68395 1.45521,-0.33915 1.45521,-0.33915 0.92604,-0.42072 0.92604,-0.42073 1.25677,-0.16237 1.25677,-0.16236 v -0.20603 -0.20602 l 0.99219,-0.3086 0.99219,-0.30859 1.05833,-0.25197 1.05834,-0.25197 1.33588,-0.37907 1.33588,-0.37908 0.98399,-0.1326 0.98399,-0.13261 0.32596,-0.24669 0.32596,-0.2467 1.09585,-0.31295 1.09584,-0.31295 1.28541,-0.1479 1.2854,-0.1479 0.7581,-0.37416 0.75809,-0.37415 1.35857,-0.15891 1.35858,-0.15892 1.5875,-0.48139 1.5875,-0.48139 1.45521,-0.19876 1.4552,-0.19876 0.66146,-0.0551 0.66146,-0.0551 1.54044,-0.45813 1.54044,-0.45813 2.16373,-0.2267 2.16372,-0.2267 0.66146,-0.13205 0.66146,-0.13205 0.79375,-0.16579 0.79375,-0.1658 3.175,-0.35235 3.175,-0.35234 3.57188,-0.52393 3.57187,-0.52393 2.91042,-0.0378 2.91041,-0.0378 5.15938,-0.38887 5.15937,-0.38886 7.01146,0.002 7.01146,0.002 3.04271,0.271 3.04271,0.27101 2.38125,0.11457 2.38125,0.11457 3.04271,0.13928 3.0427,0.13928 2.24896,0.41654 2.24896,0.41654 1.05833,0.0913 1.05834,0.0913 2.11666,0.16686 2.11667,0.16687 2.24896,0.49845 2.24896,0.49846 1.71979,0.14997 1.71979,0.14997 0.92604,0.16036 0.92604,0.16036 0.52917,0.28856 0.52917,0.28856 1.44588,0.0887 1.44589,0.0887 1.46453,0.41379 1.46453,0.4138 1.713,0.3523 1.71301,0.35229 0.21681,-0.134 0.21682,-0.134 0.31914,0.25891 0.31914,0.25892 1.5875,0.40453 1.5875,0.40453 1.52135,0.30435 1.52136,0.30435 v 0.20151 0.20151 l 0.33073,0.0199 0.33072,0.0199 1.32292,0.19411 1.32292,0.19411 0.99134,0.49653 0.99134,0.49653 1.25762,0.16493 1.25761,0.16493 0.92605,0.45988 0.92604,0.45988 1.17844,0.19637 1.17844,0.19637 0.93823,0.48078 0.93822,0.48078 1.19063,0.1709 1.19062,0.17089 0.31914,0.26477 0.31914,0.26477 0.31705,-0.19595 0.31706,-0.19595 -0.17702,0.28642 -0.17701,0.28641 0.46686,0.13159 0.46686,0.13159 0.92605,0.18494 0.92604,0.18494 0.7023,0.49627 0.7023,0.49627 h 0.58219 0.58219 l 1.25818,0.63195 1.25819,0.63195 1.11377,0.18817 1.11376,0.18817 0.1416,0.36898 0.14159,0.36899 0.21858,-0.13509 0.21858,-0.13508 0.16618,0.26889 0.16619,0.2689 h 0.55408 0.55407 l 1.67998,0.79375 1.67997,0.79375 0.19773,-7.3e-4 0.19773,-7.4e-4 1.05834,0.51603 1.05833,0.51603 0.52917,0.18817 0.52916,0.18817 0.19844,-0.042 0.19844,-0.042 v 0.22211 0.22212 l 0.67391,0.30705 0.67391,0.30705 h 0.48103 0.48104 l 0.63099,0.47973 0.631,0.47972 1.25846,0.46885 1.25846,0.46884 -0.1496,0.24206 -0.1496,0.24205 0.21406,0.0182 0.21405,0.0182 0.75636,0.0991 0.75636,0.0991 0.43426,0.34864 0.43427,0.34864 0.82277,0.45313 0.82277,0.45312 0.15192,-0.15193 0.15193,-0.15192 0.6128,0.57393 0.61281,0.57394 0.72167,0.14601 0.72167,0.14602 0.30291,0.36499 0.30292,0.36498 h 0.38009 0.38009 l -0.14827,0.23991 -0.14827,0.23991 0.47045,-0.12302 0.47044,-0.12303 0.78669,0.67655 0.78669,0.67654 0.3719,3.2e-4 0.3719,3.2e-4 0.86722,0.66146 0.86722,0.66146 h 0.30754 0.30753 l 0.83122,0.59531 0.83121,0.59532 1.01406,0.45836 1.01406,0.45837 -0.19419,0.3142 -0.19418,0.3142 0.40083,-0.15381 0.40083,-0.15382 2.08997,1.29847 2.08997,1.29846 0.52916,0.23868 0.52917,0.23868 1.85208,1.21587 1.85209,1.21588 0.79375,0.53379 0.79375,0.53379 2.6416,1.73525 2.6416,1.73526 0.13652,0.2105 0.13653,0.2105 0.59531,0.18579 0.59531,0.18578 v 0.23996 0.23996 l 0.8599,0.44354 0.85989,0.44355 1.9561,1.48147 1.9561,1.48148 0.74806,0.54975 0.74806,0.54974 0.85221,0.64088 0.85221,0.64088 1.96539,1.5875 1.96539,1.5875 0.76209,0.48738 0.7621,0.48738 v 0.24022 0.24023 l 0.33073,0.007 0.33073,0.007 1.22216,1.11699 1.22217,1.11699 1.13317,0.92604 1.13317,0.92604 0.22435,0.0882 0.22435,0.0882 v 0.357 0.35699 l 0.51646,0.16392 0.51645,0.16391 1.33697,1.30913 1.33696,1.30912 h 0.16258 0.16258 l 2.00646,1.91823 2.00645,1.91823 4.77494,4.77896 4.77495,4.77896 2.24895,2.348393 2.24896,2.348394 -0.39687,-0.22494 -0.39688,-0.22494 1.20446,1.077672 1.20446,1.077671 0.77992,1.148039 0.77991,1.148038 0.18691,0.08435 0.1869,0.08435 2.99784,3.619817 2.99785,3.619817 0.91545,1.190625 0.91545,1.190625 1.27257,1.508399 1.27257,1.508398 0.0215,0.211393 0.0215,0.211394 0.84897,1.058333 0.84897,1.058333 1.27193,1.852084 1.27192,1.852083 0.18426,0.132292 0.18426,0.132291 0.34082,0.661459 0.34082,0.661458 0.36092,0.396875 0.36092,0.396875 1.35596,2.116667 1.35596,2.116666 0.76003,1.101587 0.76004,1.101587 v 0.463865 0.463864 l 0.17409,-0.174093 0.17409,-0.174094 0.35508,0.294685 0.35507,0.294685 v 0.455762 0.455763 l 0.50499,0.45701 0.50499,0.45701 0.34513,0.840768 0.34512,0.840768 0.20805,0.264583 0.20806,0.264584 0.86006,1.324375 0.86006,1.324375 0.34595,0.66 0.34594,0.66 0.76483,1.322916 0.76483,1.322917 0.52097,1.095331 0.52098,1.095332 0.2586,0.159827 0.258609,0.159828 0.98142,2.052133 0.98142,2.052133 0.33808,0.396875 0.33807,0.396875 0.20131,0.657986 0.20131,0.657986 0.64879,0.980388 0.64879,0.980388 -0.17296,0.279855 -0.17296,0.279855 h 0.29581 0.29581 l -0.14638,0.236859 -0.14639,0.236859 0.37041,0.142138 0.3704,0.142138 0.17554,0.799203 0.17553,0.799203 0.51654,0.65667 0.51653,0.65667 0.37467,1.009401 0.37467,1.009401 0.61328,1.455208 0.61329,1.455208 0.46159,0.654184 0.46159,0.654184 0.003,0.40415 0.003,0.404149 0.66483,1.16303 0.66482,1.163029 0.12178,0.953637 0.12178,0.953637 0.35853,0.264584 0.35853,0.264583 0.46044,1.389063 0.46044,1.389062 h 0.27418 0.27418 l -0.13848,0.529532 -0.13847,0.529532 0.20686,-0.127848 0.20686,-0.127848 0.1589,0.987379 0.1589,0.987378 0.5356,1.048132 0.53561,1.048131 9.9e-4,0.407077 9.9e-4,0.407077 0.50171,0.822772 0.50171,0.822772 0.30981,1.492332 0.30981,1.492332 h 0.24582 0.24583 v 0.661458 0.661459 l 0.19844,1.87e-4 0.19843,1.87e-4 0.0348,0.606919 0.0348,0.606919 0.5356,1.178831 0.53561,1.178832 0.18727,1.256771 0.18726,1.256771 h 0.23455 0.23454 l -0.0562,0.198437 -0.0562,0.198438 0.33415,0.602887 0.33416,0.602887 0.15578,1.315342 0.15579,1.315342 h 0.22773 0.22772 V 4.068869 4.58242 l 0.26459,0.163522 0.26458,0.163521 v 0.745063 0.745062 l 0.16451,0.822528 0.1645,0.822529 0.27325,-0.168878 0.27325,-0.168877 -0.17141,0.277355 -0.17142,0.277356 0.39512,0.945652 0.39512,0.945651 v 0.758551 0.75855 l 0.5617,1.697344 0.56169,1.697343 0.2106,1.455208 0.21059,1.455209 0.11309,0.396875 0.1131,0.396875 0.32774,0.79375 0.32774,0.79375 0.13947,1.455208 0.13948,1.455208 0.6037,2.248959 0.60371,2.248958 0.17774,1.984375 0.17774,1.984375 0.39134,1.365213 0.39133,1.365214 0.10248,1.016036 0.10247,1.016037 0.17369,1.852083 0.17369,1.852084 0.38737,1.587503 0.38737,1.5875 0.13202,3.04271 0.13203,3.0427 0.26264,2.51355 0.26265,2.51354 0.24378,2.64583 0.24378,2.64583 0.16927,8.46667 0.16926,8.46667 -0.28876,7.27604 -0.28876,7.27604 -0.37779,2.77813 -0.37779,2.77812 -0.13384,2.64583 -0.13383,2.645838 -0.32524,1.98437 -0.32524,1.98438 -0.17428,0.26458 -0.17428,0.26458 -0.0734,1.85209 -0.0734,1.85208 -0.38815,2.11667 -0.38814,2.11666 -0.48384,2.91042 -0.48385,2.91042 -0.42838,1.53426 -0.42839,1.53426 v 0.87936 0.87936 l -0.63386,1.95201 -0.63386,1.952 -0.14474,1.50519 -0.14474,1.5052 -0.40069,0.77486 -0.40069,0.77485 -0.17996,1.6873 -0.17995,1.68731 -0.38233,0.58351 -0.38233,0.58351 -0.39922,1.93142 -0.39922,1.93143 -0.47023,1.05833 -0.47023,1.05834 -0.18047,1.19062 -0.18047,1.19063 -0.3421,0.52916 -0.3421,0.52917 -0.17633,1.12138 -0.17632,1.12138 -0.50403,0.99529 -0.50403,0.99528 -0.18171,1.14611 -0.18171,1.1461 -0.34167,0.65857 -0.34167,0.65857 -0.12071,-0.34946 -0.12071,-0.34947 -0.007,1.05833 -0.007,1.05834 -0.69388,1.29618 -0.69388,1.29617 -0.008,0.42362 -0.008,0.42361 -0.65076,1.32292 -0.65077,1.32291 -0.002,0.34596 -0.002,0.34596 -0.6302,1.1288 -0.6302,1.12879 -0.19299,0.9065 -0.193,0.90649 -0.34133,0.39688 -0.34133,0.39687 -0.34076,1.19063 -0.34077,1.19062 -0.47908,0.631 -0.47909,0.63099 -9.8e-4,0.55963 -9.9e-4,0.55963 -0.58175,0.92605 -0.58174,0.92604 -0.0244,0.13229 -0.0244,0.13229 -0.3721,0.99219 -0.3721,0.99219 h -0.16955 -0.16956 l -0.33256,1.12448 -0.33256,1.12447 -0.33733,0.39688 -0.33732,0.39687 -0.31788,0.99015 -0.31788,0.99015 -0.36004,0.20149 -0.36005,0.20149 -0.14223,0.78436 -0.14223,0.78437 -0.53621,0.72526 -0.53622,0.72527 v 0.38554 0.38554 l -0.21257,0.0882 -0.21257,0.0882 -0.89093,1.78594 -0.89092,1.78594 h -0.26351 -0.26352 l 0.16505,0.16505 0.16505,0.16506 -0.51405,1.00762 -0.514049,1.00762 -0.24801,0.15327 -0.248,0.15328 -0.1736,0.79039 -0.1736,0.79039 -0.48954,0.34289 -0.48955,0.34288 -0.1917,0.78192 -0.1917,0.78192 -0.18378,0.13229 -0.18378,0.13229 -0.74252,1.32292 -0.74253,1.32292 -0.28973,0.53289 -0.28973,0.53289 -0.59531,0.83087 -0.59531,0.83087 v 0.24888 0.24888 l -0.49252,0.44572 -0.49252,0.44572 -0.47046,1.04328 -0.47045,1.04329 -0.21989,-0.13591 -0.2199,-0.1359 -0.18079,0.73843 -0.18078,0.73842 -0.1843,0.13229 -0.18429,0.13229 -0.70045,1.05834 -0.70045,1.05833 -0.70211,1.05833 -0.70212,1.05834 -0.22449,0.0882 -0.22448,0.0882 v 0.23938 0.23939 l -0.98218,1.45835 -0.98218,1.45836 h -0.20845 -0.20844 v 0.36102 0.36103 l -0.78953,0.89575 -0.78952,0.89574 -0.004,0.17954 -0.004,0.17954 -0.33073,0.35034 -0.33073,0.35035 -0.98605,1.3222 -0.98604,1.3222 -0.21553,0.26458 -0.21553,0.26459 -0.86165,1.25677 -0.86166,1.25677 h -0.23248 -0.23247 l -0.0855,0.36705 -0.0856,0.36705 -2.77813,3.38437 -2.77812,3.38436 -0.39688,0.42014 -0.39687,0.42014 -0.47465,0.73167 -0.47464,0.73167 -0.25952,-0.16039 -0.25951,-0.16039 0.0727,0.25055 0.0727,0.25055 -1.71979,1.93299 -1.71979,1.93298 -0.26458,0.28849 -0.26459,0.28849 -1.12448,1.2459 -1.12448,1.24589 v -0.10603 -0.10602 l -0.79375,0.79375 -0.79375,0.79375 v 0.21053 0.21053 l -1.16484,1.07372 -1.16484,1.07371 0.17265,0.19277 0.17266,0.19276 -0.5211,-0.18843 -0.52111,-0.18843 0.18568,0.18567 0.18567,0.18567 -0.7229,0.62174 -0.72291,0.62174 0.20765,3.2e-4 0.20764,3.2e-4 -1.00139,0.8599 -1.0014,0.8599 -0.0882,0.19843 -0.0882,0.19844 h -0.37482 -0.37483 l 0.0662,0.23869 0.0661,0.23868 -1.47514,1.41496 -1.47514,1.41496 -1.99121,1.85209 -1.99122,1.85208 -2.31559,2.10856 -2.3156,2.10856 -0.71606,0.53727 -0.71605,0.53728 -0.46791,0.39687 -0.46791,0.39688 -0.77498,0.66145 -0.77497,0.66146 -0.81923,0.66146 -0.81923,0.66146 -0.83259,0.72763 -0.83258,0.72763 -1.05834,0.72683 -1.05833,0.72684 -0.19439,0.26532 -0.19438,0.26533 -0.004,-0.16787 -0.004,-0.16787 -1.12436,1.02777 -1.12436,1.02776 h -0.31584 -0.31585 l -0.34573,0.46302 -0.34573,0.46303 -1.23388,0.85989 -1.23388,0.8599 h -0.28747 -0.28748 v 0.2802 0.28019 l -0.30546,-0.18878 -0.30547,-0.18879 0.18728,0.30302 0.18727,0.30302 -0.94014,0.44832 -0.94015,0.44833 v 0.18944 0.18944 l -0.85989,0.5539 -0.8599,0.5539 -0.79375,0.52375 -0.79375,0.52376 -0.39687,0.26734 -0.39688,0.26735 -0.92604,0.65489 -0.92604,0.65489 -0.96778,0.53272 -0.96778,0.53271 -0.0954,0.28606 -0.0953,0.28607 -0.39521,0.058 -0.39521,0.058 -0.65832,0.46568 -0.65832,0.46568 -0.92605,0.59901 -0.92604,0.59902 -1.12448,0.63141 -1.12448,0.6314 v 0.23148 0.23147 l -0.24218,-0.14967 -0.24218,-0.14968 -0.75,0.63046 -0.75001,0.63045 -1.05833,0.54479 -1.05834,0.54479 -1.12448,0.57546 -1.12448,0.57545 v 0.19356 0.19357 l -1.05833,0.31708 -1.05833,0.31709 v 0.26746 0.26747 l -0.99219,0.40972 -0.99219,0.40972 -0.39687,0.34591 -0.39688,0.34592 -1.13246,0.30154 -1.13246,0.30155 0.14931,0.24159 0.14931,0.24159 -1.18236,0.34476 -1.18236,0.34477 -0.65611,0.57047 -0.65611,0.57048 -0.14668,-0.14669 -0.14669,-0.14668 -0.73586,0.49575 -0.73586,0.49574 -1.98438,0.99087 -1.98437,0.99087 -0.46302,0.004 -0.46302,0.004 v 0.22212 0.22211 l -0.67391,0.30705 -0.67391,0.30706 h -0.40973 -0.40972 l -0.70473,0.50181 -0.70473,0.50181 -1.12205,0.30214 -1.12206,0.30213 v 0.27 0.27 l -0.24198,-0.14955 -0.24199,-0.14956 -0.0935,0.28064 -0.0936,0.28064 -0.39207,0.0698 -0.39208,0.0698 -0.85989,0.20142 -0.8599,0.20142 v 0.20734 0.20734 l -1.5187,0.47769 -1.51871,0.4777 -0.32591,0.32591 -0.32591,0.32591 -1.33039,0.34097 -1.33038,0.34097 v 0.18017 0.18018 l -1.25677,0.32427 -1.25677,0.32426 -0.7276,0.27139 -0.72761,0.27139 v 0.19866 0.19867 l -1.09491,0.17509 -1.09491,0.17508 -1.42647,0.65248 -1.42647,0.65248 h -0.73299 -0.733 l -0.2663,0.2663 -0.26629,0.2663 -2.36631,0.80725 -2.36631,0.80725 -1.58766,0.33704 -1.58766,0.33703 -0.53337,0.28545 -0.53336,0.28545 -1.86865,0.38676 -1.86864,0.38676 -0.91836,0.43579 -0.91837,0.43579 -1.30967,0.10057 -1.30967,0.10056 -0.79375,0.31665 -0.79375,0.31665 -1.40197,0.37149 -1.40198,0.3715 h -0.5246 -0.5246 l -1.55091,0.52246 -1.55092,0.52247 -1.54959,0.16511 -1.5496,0.16511 -0.52192,0.2793 -0.52193,0.2793 -3.31453,0.47362 -3.31454,0.47362 -1.32291,0.27827 -1.32292,0.27826 -2.51354,0.27169 -2.51354,0.27168 -0.66146,0.10172 -0.66146,0.10171 -1.85208,0.40176 -1.85209,0.40176 -3.57187,0.1577 -3.57188,0.15769 -2.77812,0.40017 -2.77813,0.40016 -12.83229,0.0896 -12.83229,0.0896 z m 27.78125,-12.94145 5.68854,-0.26388 4.49792,-0.40723 4.49792,-0.40724 4.23333,-0.52961 4.23333,-0.52961 4.8948,-0.81299 4.89479,-0.813 0.0823,-0.0735 0.0823,-0.0735 -0.53911,-2.84399 -0.53912,-2.844 -0.12512,-0.12512 -0.12511,-0.12511 -5.10659,0.82079 -5.1066,0.82079 -3.0427,0.3953 -3.04271,0.39529 -3.96875,0.39323 -3.96875,0.39324 -4.55384,0.2735 -4.55384,0.27349 h -0.64504 -0.64504 l -0.15224,-3.24114 -0.15224,-3.24115 -0.10931,-3.33359 -0.10931,-3.33358 4.00522,-0.16129 4.00522,-0.16129 4.36563,-0.41138 4.36562,-0.41137 5.0224,-0.6682 5.02239,-0.66819 0.5567,-0.13972 0.55671,-0.13973 -0.50163,-2.95245 -0.50162,-2.95245 -0.0528,-0.0528 -0.0528,-0.0528 -4.49554,0.62983 -4.49555,0.62984 -3.96875,0.40444 -3.96875,0.40445 -4.86466,0.29243 -4.86467,0.29244 -0.22451,-0.35421 -0.22451,-0.3542 -0.004,-2.00826 -0.004,-2.00827 -0.17176,-4.35489 -0.17175,-4.3549 5.26498,-0.31553 5.26498,-0.31553 4.8948,-0.55199 4.89479,-0.55198 4.6047,-0.76952 4.60471,-0.76951 0.0922,-0.0922 0.0922,-0.0922 -0.56462,-2.88782 -0.56462,-2.88781 -0.0642,-0.0771 -0.0642,-0.077 -3.00976,0.52139 -3.00976,0.5214 -4.10104,0.54595 -4.10104,0.54594 -4.36562,0.4087 -4.36563,0.40869 -6.9174,0.16273 -6.9174,0.16273 -0.15534,5.58203 -0.15533,5.58204 -0.15971,16.99947 -0.15971,16.99948 3.66057,-10e-4 3.66057,-10e-4 z m -24.48437,-3.19323 0.18996,-2.93089 -0.12352,-0.12352 -0.12352,-0.12352 -3.27355,-0.25935 -3.27354,-0.25935 -4.55396,-0.51368 -4.55396,-0.51367 -4.44187,-0.67604 -4.44188,-0.67604 -4.89479,-0.95484 -4.89479,-0.95484 -0.0897,-0.0774 -0.0897,-0.0774 1.47041,-6.4367 1.47041,-6.4367 1.74315,-7.67292 1.74316,-7.67292 1.04331,-4.55388 1.04331,-4.55388 v -0.40706 -0.40705 l -0.46302,-0.004 -0.46302,-0.004 -3.50573,-0.88725 -3.50573,-0.88726 v 0.0842 0.0842 l -1.04105,3.65134 -1.04106,3.65135 -0.52205,1.98437 -0.52204,1.98438 -2.16266,7.80521 -2.16266,7.80521 -2.23002,8.1862 -2.23001,8.1862 0.20109,0.17867 0.20109,0.17868 3.96875,0.95012 3.96875,0.95011 2.38125,0.52183 2.38125,0.52182 2.77812,0.54576 2.77813,0.54576 4.89479,0.77914 4.89479,0.77914 3.57188,0.43094 3.57187,0.43095 3.57188,0.34628 3.57187,0.34627 1.48732,0.0335 1.48731,0.0335 z m 88.69468,-8.84101 4.54677,-1.52658 -0.88084,-2.41274 -0.88085,-2.41274 -4.02778,-10.84792 -4.02779,-10.84791 -0.73197,-1.98438 -0.73197,-1.98437 -0.7115,-1.85209 -0.71149,-1.85208 -0.39873,-1.15615 -0.39873,-1.15615 0.21968,-0.1901 0.21968,-0.1901 1.7198,-0.59892 1.71979,-0.59891 1.45521,-0.61458 1.4552,-0.61458 4.10105,-1.76817 4.10104,-1.76816 0.24522,-0.23002 0.24523,-0.23003 -1.14788,-2.45352 -1.14788,-2.45353 -0.20506,-0.23459 -0.20507,-0.2346 -2.59645,1.12843 -2.59645,1.12843 -1.19062,0.53229 -1.19063,0.53228 -2.51354,0.9936 -2.51354,0.9936 -3.43958,1.24763 -3.43959,1.24762 -4.23333,1.31241 -4.23333,1.31241 -4.65934,1.17181 -4.65933,1.17181 -0.36775,0.004 -0.36775,0.004 -0.33631,0.21345 -0.33631,0.21345 0.68136,2.88362 0.68135,2.88362 0.0723,0.0723 0.0723,0.0723 3.81602,-0.93647 3.81602,-0.93648 4.17031,-1.17858 4.17031,-1.17859 h 0.11154 0.11154 l 1.7571,5.49011 1.75709,5.4901 2.51558,7.80521 2.51558,7.80521 1.57509,4.89479 1.57508,4.89479 0.12522,0.35818 0.12523,0.35818 0.3285,-0.12302 0.32849,-0.12302 z m -150.8971,-2.71404 0.67198,-1.78594 4.53565,-12.56771 4.53565,-12.5677 2.48767,-6.85788 2.48767,-6.85787 -0.0654,-0.0475 -0.0654,-0.0475 -3.59785,-1.36286 -3.59784,-1.36286 h -0.27646 -0.27645 l -0.13354,0.33073 -0.13355,0.33073 -1.58182,3.83645 -1.58183,3.83646 -1.90416,4.63021 -1.90415,4.63021 -0.23052,0.23663 -0.23052,0.23664 -0.87462,-0.34796 -0.87461,-0.34795 -2.64584,-1.16606 -2.64583,-1.16606 -1.45521,-0.66786 -1.45521,-0.66786 -4.49791,-2.24761 -4.49792,-2.2476 -2.64583,-1.46969 -2.64584,-1.46968 -0.094,-0.0759 -0.094,-0.0759 4.95626,-8.50221 4.95627,-8.50221 -0.2447,-0.2447 -0.2447,-0.2447 -3.2462,-1.985 -3.2462,-1.985 h -0.0859 -0.0859 l -1.84616,2.84427 -1.84615,2.84427 -3.51052,5.42396 -3.51051,5.42396 -1.89727,2.91042 -1.89728,2.91042 -3.29198,5.09875 -3.29197,5.09875 -1.6464,2.57416 -1.64639,2.57417 -0.007,0.17478 -0.007,0.17478 2.31511,1.44696 2.3151,1.44696 2.09641,1.2139 2.0964,1.21391 1.21089,-2.08613 1.21089,-2.08614 3.55834,-6.10732 3.55834,-6.10733 h 0.2032 0.2031 l 3.54756,1.96586 3.54757,1.96586 3.40661,1.70686 3.40662,1.70687 4.10104,1.84038 4.10104,1.84038 1.50759,0.59745 1.50758,0.59746 -0.48704,1.23163 -0.48704,1.23163 -3.07107,7.39525 -3.07106,7.39526 v 0.31792 0.31793 l 0.7276,0.27705 0.72761,0.27704 3.83646,1.45956 3.83646,1.45955 0.1753,0.009 0.17531,0.009 z m 186.77357,-13.07536 3.4976,-1.89671 1.00623,-0.62902 1.00624,-0.62901 -0.50664,-0.84771 -0.50663,-0.84771 -4.30465,-7.27604 -4.30465,-7.27604 -3.44574,-5.82084 -3.44574,-5.82083 -3.14952,-5.29167 -3.14953,-5.29167 -0.21308,-0.21526 -0.21308,-0.21527 -2.0866,1.2354 -2.08661,1.2354 -1.53059,0.77428 -1.5306,0.77427 1.17921,2.17434 1.17921,2.17435 4.93847,9.26041 4.93847,9.26042 4.54104,8.53243 4.54104,8.53243 0.0743,3.8e-4 0.0743,3.8e-4 z m 27.70697,-20.4643 2.24896,-0.72058 2.04809,-1.02864 2.04808,-1.02864 1.43035,-0.91498 1.43035,-0.91499 1.97026,-1.58499 1.97026,-1.58499 1.56277,-1.67097 1.56276,-1.67096 1.38568,-1.8466 1.38568,-1.8466 1.32341,-2.64584 1.32341,-2.64583 0.57018,-2.11667 0.57017,-2.11667 0.028,-2.91041 0.028,-2.91042 -0.61116,-1.85208 -0.61116,-1.85209 -0.39717,-0.52916 -0.39716,-0.52917 -0.81442,0.92604 -0.81441,0.92604 -1.7346,1.85209 -1.73459,1.85208 -0.98927,1.05833 -0.98927,1.05834 0.39188,1.45521 0.39188,1.4552 -0.16774,1.45521 -0.16774,1.45521 -0.6765,1.71979 -0.6765,1.71979 -1.1148,1.7198 -1.1148,1.71979 -1.29457,1.33273 -1.29456,1.33273 -1.45521,1.0942 -1.45521,1.09421 -1.39071,0.69667 -1.3907,0.69667 -1.38742,0.42151 -1.38742,0.42152 -1.99882,-0.004 -1.99883,-0.004 -1.2939,-0.57236 -1.2939,-0.57235 -0.85911,-0.65528 -0.85911,-0.65527 -4.44565,-5.75293 -4.44566,-5.75294 -0.70996,-1.38845 -0.70996,-1.38845 -0.18097,-1.44846 -0.18097,-1.44846 0.29158,-1.66101 0.29159,-1.661 0.83506,-1.71979 0.83506,-1.7198 2.40865,-2.38125 2.40865,-2.38125 1.98437,-0.98879 1.98438,-0.98879 1.57694,-0.40027 1.57694,-0.40027 1.73035,0.0116 1.73035,0.0116 0.99655,0.35558 0.99654,0.35558 3.1045,-3.30629 3.1045,-3.30629 v -0.28574 -0.28573 l -1.5875,-0.66734 -1.5875,-0.66734 -3.83646,-0.009 -3.83646,-0.009 -2.11667,0.62495 -2.11666,0.62496 -2.33021,1.15767 -2.3302,1.15767 -1.24167,0.84158 -1.24167,0.84158 -1.98438,1.66157 -1.98437,1.66158 -1.32292,1.51427 -1.32292,1.51428 -1.01509,1.3427 -1.01508,1.34271 -1.03367,2.04114 -1.03367,2.04114 -0.57679,2.0599 -0.57678,2.0599 -0.004,2.24896 -0.004,2.24896 0.35198,1.45521 0.35198,1.45521 0.61575,1.40392 0.61575,1.40393 4.17091,5.9713 4.1709,5.97131 1.05455,1.19802 1.05454,1.19803 1.33098,0.84912 1.33098,0.84911 1.5875,0.55675 1.5875,0.55675 0.66145,0.12224 0.66146,0.12225 2.91042,-0.0856 2.91042,-0.0856 z m -280.81252,-12.25032 5.33435,-6.26679 6.40969,-7.40834 6.40968,-7.40833 0.80181,-0.99219 0.8018,-0.99218 h 0.20382 0.20382 l 2.46696,2.05052 2.46697,2.05052 2.77504,2.13707 2.77504,2.13706 1.50567,1.10084 1.50567,1.10084 1.65697,-2.31186 1.65697,-2.31187 0.22457,-0.15642 0.22457,-0.15641 -4.31325,-3.26638 -4.31325,-3.26638 -4.36563,-3.7478 -4.36562,-3.74781 -4.14834,-4.07419 -4.14833,-4.07419 -2.85206,-3.175 -2.85207,-3.175 -0.28014,-0.0737 -0.28015,-0.0737 -1.44122,1.2643 -1.44123,1.2643 -0.7666,0.67316 -0.76659,0.67317 1.02169,1.17097 1.0217,1.17097 1.44351,1.59545 1.44351,1.59544 3.68016,3.73797 3.68015,3.73797 -2.49768,2.61203 -2.49769,2.61203 -9.78304,10.31875 -9.78303,10.31876 -1.12951,1.2401 -1.12951,1.24011 1.93656,1.82803 1.93657,1.82803 1.96687,1.76051 1.96688,1.76051 0.14979,-0.0171 0.14979,-0.0171 z m -27.16248,-16.31289 v -0.35758 l 2.08574,-6.30754 2.08574,-6.30753 1.45875,-3.83646 1.45874,-3.83646 1.64326,-3.96875 1.64326,-3.96875 1.7341,-3.83646 1.7341,-3.83646 2.87893,-5.65661 2.87893,-5.65662 -2.01291,-3.20692 -2.01291,-3.20693 h -12.7488 -12.74881 l -3.70416,-0.33812 -3.70417,-0.33812 -2.51354,-0.27012 -2.51354,-0.27012 -3.83646,-0.52354 -3.83646,-0.52355 -3.0721,-0.52186 -3.0721,-0.52186 h -0.41704 -0.41703 l 0.80263,1.77017 0.80264,1.77017 1.92394,4.00657 1.92393,4.00656 0.36569,0.009 0.36569,0.009 5.42396,0.33856 5.42396,0.33855 1.394,2.55174 1.394,2.55175 2.12725,3.56137 2.12724,3.56138 3.07929,4.63021 3.0793,4.6302 1.5354,2.14687 1.53539,2.14687 -0.002,0.23438 -0.002,0.23438 -2.09176,5.14729 -2.09176,5.14729 0.32494,0.46392 0.32495,0.46392 3.39406,4.10454 3.39407,4.10455 0.22688,-0.14022 0.22688,-0.14022 z m -1.91778,-27.45859 -1.17048,-1.65365 -1.13761,-1.71979 -1.1376,-1.71979 -1.99364,-3.175 -1.99364,-3.175 -1.68527,-2.87773 -1.68526,-2.87772 0.0768,-0.0569 0.0768,-0.0569 8.33437,-0.31616 8.33438,-0.31616 2.74792,-0.26309 2.74793,-0.26309 0.10597,0.10597 0.10597,0.10597 -2.39792,4.33395 -2.39791,4.33395 -2.79604,5.6224 -2.79604,5.6224 h -0.0841 -0.0841 z m 343.83314,19.34606 1.6461,-0.82842 2.7155,-1.84547 2.71551,-1.84546 2.68471,-2.55164 2.68472,-2.55163 2.0803,-2.60765 2.0803,-2.60765 1.67802,-2.55172 1.67802,-2.55173 1.3364,-2.38125 1.33641,-2.38125 1.04136,-2.38125 1.04137,-2.38125 0.69523,-2.11667 0.69523,-2.11667 0.38568,-1.85647 0.38569,-1.85647 0.17948,-1.98056 0.17947,-1.98055 -0.30038,-1.98381 -0.30038,-1.9838 -0.80818,-1.65993 -0.80818,-1.65993 -1.41855,-1.07101 -1.41855,-1.07102 -1.34274,-0.5102 -1.34274,-0.5102 -1.91539,0.0101 -1.91539,0.0101 -1.65022,0.71754 -1.65022,0.71753 -1.61789,1.18209 -1.61789,1.18209 -2.02356,2.26729 -2.02355,2.2673 -1.91354,2.37145 -1.91354,2.37145 -2.54117,3.175 -2.54117,3.175 -2.19597,2.24896 -2.19597,2.24896 -1.49809,0.89997 -1.49809,0.89996 -1.24394,0.11191 -1.24394,0.1119 -1.21864,-0.78342 -1.21864,-0.78343 -0.5673,-1.17188 -0.5673,-1.17187 v -1.53192 -1.53192 l 0.41136,-1.62569 0.41137,-1.6257 1.2876,-2.64583 1.28761,-2.64583 1.58593,-2.3954 1.58592,-2.39539 1.80834,-1.98438 1.80833,-1.98437 1.46031,-1.30877 1.46031,-1.30878 0.99089,-0.79375 0.99089,-0.79375 -1.01209,-3.49978 -1.0121,-3.49978 -0.16015,-0.16015 -0.16015,-0.16015 -2.38674,2.13997 -2.38674,2.13997 -1.89306,2.08636 -1.89306,2.08637 -1.82062,2.42445 -1.82062,2.42446 -1.41518,2.30081 -1.41518,2.30081 -1.35047,2.55675 -1.35048,2.55676 -0.9232,2.47033 -0.92319,2.47032 -0.41937,2.03937 -0.41937,2.03937 v 1.45334 1.45334 l 0.29334,1.40208 0.29335,1.40209 0.81372,1.54363 0.81372,1.54362 1.41636,1.26238 1.41636,1.26238 1.41446,0.71566 1.41447,0.71565 1.4551,0.15018 1.45509,0.15018 1.42004,-0.33463 1.42003,-0.33463 1.32292,-0.66186 1.32291,-0.66185 1.9237,-1.44614 1.92371,-1.44613 2.40447,-2.59944 2.40447,-2.59943 2.36993,-2.99541 2.36993,-2.99541 2.00093,-2.45031 2.00093,-2.45031 1.60983,-1.49042 1.60983,-1.49042 1.06822,-0.48523 1.06822,-0.48523 0.72225,-0.006 0.72225,-0.006 1.04144,0.4167 1.04145,0.4167 0.74985,1.08386 0.74984,1.08385 -0.0212,2.79892 -0.0212,2.79892 -0.86923,2.38125 -0.86923,2.38125 -1.06164,2.11667 -1.06165,2.11667 -1.74027,2.64335 -1.74028,2.64335 -1.70011,1.98686 -1.70011,1.98685 -1.48667,1.41045 -1.48666,1.41045 -1.85208,1.32242 -1.85209,1.32243 -1.65364,0.92792 -1.65365,0.92792 -0.002,2.29233 -0.002,2.29233 -0.16867,1.78594 -0.16867,1.78594 h 0.17809 0.1781 z m -161.07265,-4.73906 1.32292,-0.24426 3.75128,-0.24964 3.75128,-0.24963 0.49369,-0.26422 0.49369,-0.26421 1.97274,-0.0716 1.97273,-0.0715 0.80513,-0.32586 0.80512,-0.32586 1.70842,-0.17915 1.70842,-0.17915 1.13372,-0.36935 1.13373,-0.36935 h 0.92993 0.92994 l 0.71446,-0.36089 0.71447,-0.3609 1.44859,-0.18528 1.4486,-0.18528 0.27119,-0.21564 0.2712,-0.21563 1.45521,-0.28001 1.45521,-0.28 1.47327,-0.37835 1.47327,-0.37835 0.55985,-0.29963 0.55986,-0.29962 0.61271,-0.002 0.6127,-0.002 0.75785,-0.39525 0.75785,-0.39524 h 0.8958 0.8958 v -0.25397 -0.25396 l 1.12448,-0.30844 1.12447,-0.30844 0.83374,-0.36364 0.83374,-0.36364 h 0.83552 0.83553 l -0.15873,-0.25682 -0.15873,-0.25683 0.73843,-0.15745 0.73842,-0.15746 0.66146,-0.34892 0.66146,-0.34892 0.85989,-0.18386 0.8599,-0.18387 v -0.24356 -0.24356 h 0.35639 0.35639 l 0.53585,-0.46302 0.53584,-0.46302 1.5419,-1.32292 1.5419,-1.32291 1.20389,-1.03392 1.20388,-1.03391 0.7706,-0.68588 0.77061,-0.68588 2.53737,-2.51354 2.53738,-2.51354 2.20312,-2.64583 2.20311,-2.64584 1.76495,-2.64583 1.76494,-2.64583 0.1323,-0.13229 0.13229,-0.1323 0.87026,-1.5875 0.87027,-1.5875 1.08106,-2.24895 1.08106,-2.24896 1.00449,-2.52331 1.00449,-2.5233 0.78374,-2.37149 0.78374,-2.37149 0.55744,-1.85208 0.55743,-1.85208 0.29281,-1.19063 0.29282,-1.19062 0.27411,-2.03043 0.27411,-2.03044 -0.27471,-2.73206 -0.27471,-2.73207 -0.38582,-1.5875 -0.38582,-1.5875 -0.55968,-1.5875 -0.55967,-1.5875 -0.41668,-1.16923 -0.41668,-1.16923 -1.20597,-2.53494 -1.20597,-2.53494 -1.61471,-2.77812 -1.61471,-2.77813 -0.27406,-0.3041 -0.27406,-0.3041 -1.05833,-1.74926 -1.05834,-1.74927 -0.57614,-0.15332 -0.57615,-0.15332 -0.391,0.22231 -0.39101,0.22231 -3.15026,3.04271 -3.15027,3.04271 -1.30654,1.17089 -1.30654,1.17089 -2.96887,2.75452 -2.96887,2.75451 -0.88666,0.7048 -0.88666,0.70481 -0.40336,0.39687 -0.40336,0.39688 -1.69423,1.48454 -1.69424,1.48454 -2.27113,1.95504 -2.27112,1.95504 -0.73776,0.62166 -0.73775,0.62166 -3.20883,2.698 -3.20883,2.69799 -3.96875,3.06299 -3.96875,3.06299 -3.83646,2.50703 -3.83646,2.50704 -2.71225,1.63304 -2.71226,1.63304 -0.85962,0.51232 -0.85962,0.51231 -1.20204,0.63437 -1.20204,0.63438 -1.44379,0.80144 -1.44379,0.80144 -1.45521,0.78276 -1.45521,0.78277 -3.96875,2.00212 -3.96875,2.00212 -1.98437,0.92644 -1.98438,0.92645 -2.91042,1.31741 -2.91041,1.3174 -1.05834,0.4516 -1.05833,0.4516 -2.91042,1.16901 -2.91041,1.16901 -0.52917,0.24408 -0.52917,0.24408 -3.70416,1.32659 -3.70417,1.32659 -3.175,1.0516 -3.175,1.05161 -3.70417,1.06295 -3.70416,1.06295 -4.10105,0.90778 -4.10104,0.90778 -2.38125,0.4246 -2.38125,0.42461 -3.57187,0.43392 -3.57188,0.43391 -5.29166,0.003 -5.29167,0.003 -4.10104,-0.44021 -4.10104,-0.4402 -2.38125,-0.39742 -2.38125,-0.39741 -2.00604,-0.42099 -2.00603,-0.42098 -0.57365,0.30701 -0.57366,0.30701 v 0.38756 0.38757 h 0.39688 0.39687 v 0.23585 0.23586 l 0.99219,0.42689 0.99219,0.42689 0.39687,0.2338 0.39688,0.23379 1.5875,0.74872 1.5875,0.74872 0.0882,0.20682 0.0882,0.20683 h 0.44824 0.44825 l 0.52189,0.3574 0.52189,0.3574 0.72761,0.1768 0.7276,0.17681 v 0.25954 0.25955 h 0.30175 0.30175 l 1.2196,0.55769 1.21961,0.5577 0.92604,0.39471 0.92604,0.39472 0.79375,0.36137 0.79375,0.36137 0.72761,0.17011 0.7276,0.17011 v 0.20645 0.20646 l 0.99219,0.18541 0.99219,0.18542 0.26458,0.20642 0.26458,0.20643 0.99219,0.31958 0.99219,0.31958 v 0.25567 0.25566 l 0.33073,-0.0646 0.33073,-0.0646 0.99218,0.19729 0.99219,0.19728 v 0.21776 0.21776 l 1.1152,0.14958 1.11519,0.14958 0.30304,0.41442 0.30303,0.41443 h 0.80049 0.80048 l 0.75785,0.39524 0.75785,0.39525 0.62063,0.002 0.62064,0.002 0.70228,0.36758 0.70228,0.36758 1.32292,0.27365 1.32291,0.27365 1.5875,0.39313 1.5875,0.39313 0.9243,0.28856 0.92429,0.28855 h 0.86995 0.86995 l 0.15229,0.39687 0.1523,0.39688 1.22846,0.001 1.22846,0.001 1.01152,0.28088 1.01152,0.28088 2.16348,0.38281 2.16348,0.3828 2.38125,0.28087 2.38125,0.28086 0.52917,0.23732 0.52917,0.23733 3.83646,0.27368 3.83645,0.27369 0.92605,0.23567 0.92604,0.23568 12.17083,0.0113 12.17083,0.0113 z m 62.14131,-17.15406 0.75798,-0.4295 1.09411,-0.59258 1.0941,-0.59258 0.30242,-0.003 0.30242,-0.003 0.1523,-0.39687 0.1523,-0.39688 h 0.50507 0.50507 l 0.32938,-0.39687 0.32938,-0.39688 h 0.47472 0.47472 l 0.0882,-0.20823 0.0882,-0.20823 2.24896,-1.30043 2.24895,-1.30043 0.1323,-0.17547 0.13229,-0.17547 0.59531,-0.18578 0.59531,-0.18578 v -0.24676 -0.24675 h 0.34306 0.34307 l 0.51683,-0.4065 0.51683,-0.4065 1.7198,-1.10171 1.71979,-1.1017 0.13229,-0.14544 0.13229,-0.14544 0.84918,-0.59531 0.84919,-0.59532 h 0.143 0.14301 l 0.5102,-0.46302 0.5102,-0.46302 0.40467,-0.33073 0.40468,-0.33073 h 0.15305 0.15305 l 1.77634,-1.33638 1.77635,-1.33638 1.0133,-0.84643 1.0133,-0.84643 0.30962,-0.28172 0.30961,-0.28172 0.42443,-0.24745 0.42443,-0.24745 1.40688,-1.19062 1.40689,-1.19063 0.98894,-0.92604 0.98894,-0.92604 1.38983,-1.19062 1.38983,-1.19063 1.39507,-1.38906 1.39507,-1.38906 h 0.28182 0.28183 v -0.28694 -0.28694 l 1.91823,-1.92771 1.91823,-1.92772 1.61991,-1.82024 1.6199,-1.82025 1.15822,-1.33738 1.15822,-1.33739 1.32292,-1.52629 1.32291,-1.5263 0.0931,-0.25986 0.0931,-0.25986 0.89784,-0.9775 0.89783,-0.9775 0.001,-0.17954 0.001,-0.17954 0.33073,-0.34962 0.33073,-0.34963 0.793,-1.19063 0.79301,-1.19062 0.13303,-0.13229 0.13304,-0.1323 0.59531,-0.84918 0.59531,-0.84918 v -0.2753 -0.27529 h 0.23845 0.23845 l 0.61584,-0.99219 0.61583,-0.99219 0.14352,-0.26458 0.14351,-0.26459 0.61584,-0.99218 0.61583,-0.99219 h 0.23845 0.23845 v -0.33676 -0.33677 l 0.90577,-1.37534 0.90578,-1.37535 0.17039,-0.53685 0.17039,-0.53685 h 0.37904 0.37905 v -0.4106 -0.4106 l 0.57871,-1.00554 0.57871,-1.00554 -0.43002,-2.22188 -0.43003,-2.22188 -0.39838,-1.71979 -0.39838,-1.71979 -0.90979,-2.77813 -0.90979,-2.77812 -0.33032,-0.79375 -0.33032,-0.79375 -0.69301,-1.57973 -0.69301,-1.57973 -1.81817,-3.57965 -1.81816,-3.57964 -0.16621,-0.13229 -0.16621,-0.1323 -0.64496,-1.19062 -0.64496,-1.19063 -0.87639,-1.25405 -0.8764,-1.25406 v -0.14572 -0.14572 l -0.59531,-0.83357 -0.59531,-0.83356 -0.31446,-0.41249 -0.31445,-0.41249 -1.45878,-1.98438 -1.45878,-1.984366 -0.8726,-1.14395 -0.8726,-1.14394 -0.48304,-0.57585 -0.48303,-0.57585 -0.70759,-0.79761 -0.70759,-0.79761 -0.89301,-1.05447 -0.89301,-1.05447 -1.75282,-1.93966 -1.75282,-1.93966 -0.44791,-0.24437 -0.4479,-0.24437 -0.67657,0.30827 -0.67658,0.30827 v 0.1995 0.19949 l -2.55988,3.26377 -2.55987,3.26376 -0.15211,0.13229 -0.1521,0.13229 -2.09032,2.77813 -2.09033,2.778116 -0.29092,0.26458 -0.29093,0.26459 -1.17767,1.58045 -1.17767,1.58045 -0.32629,0.40392 -0.3263,0.40393 -2.06631,2.64583 -2.06632,2.64583 -0.31605,0.39688 -0.31604,0.39687 -0.87618,1.103 -0.87617,1.103 -0.47437,0.61679 -0.47437,0.6168 -0.45167,0.61179 -0.45168,0.61179 -0.85968,0.97571 -0.85969,0.97571 -2.1e-4,0.60686 -2.1e-4,0.60687 1.40288,1.37751 1.40287,1.37751 1.08088,1.45521 1.08088,1.4552 1.21299,2.28002 1.21299,2.28002 0.80814,2.48248 0.80814,2.48248 0.40935,1.85209 0.40935,1.85208 0.5581,2.91042 0.55809,2.91041 0.0148,5.95313 0.0148,5.95312 -0.31238,1.33025 -0.31237,1.33025 -0.16181,1.31558 -0.1618,1.31559 -0.4054,1.45521 -0.40539,1.45521 -0.55694,1.85208 -0.55694,1.85208 -0.99291,2.51355 -0.99291,2.51354 -1.02808,1.98437 -1.02808,1.98438 -0.57217,0.92604 -0.57217,0.92604 -0.18751,0.39688 -0.18752,0.39687 -1.43356,2.11667 -1.43356,2.11666 -1.39906,1.7198 -1.39907,1.71979 -1.94307,1.99295 -1.94308,1.99295 -1.85208,1.55691 -1.85208,1.5569 -0.13229,0.16064 -0.1323,0.16064 -1.78809,1.40723 -1.78809,1.40723 -0.39472,0.56354 -0.39472,0.56354 v 0.48813 0.48812 l 0.59531,-0.18364 0.59531,-0.18364 z m -131.19756,-5.85153 5.29167,-0.54068 1.98437,-0.25616 1.98438,-0.25616 2.38125,-0.41176 2.38125,-0.41177 1.4552,-0.28113 1.45521,-0.28113 1.71979,-0.3544 1.7198,-0.35441 1.25099,-0.27018 1.25099,-0.27018 1.52713,-0.42396 1.52714,-0.42397 1.19062,-0.371 1.19063,-0.37101 1.85208,-0.55609 1.85208,-0.55609 0.52917,-0.2375 0.52917,-0.2375 2.24895,-0.76728 2.24896,-0.76729 1.71979,-0.71245 1.7198,-0.71245 0.83373,-0.38036 0.83374,-0.38035 h 0.14835 0.14836 l 1.92832,-0.89052 1.92833,-0.89051 1.19063,-0.53544 1.19062,-0.53545 3.57188,-1.76536 3.57187,-1.76536 0.39688,-0.24314 0.39687,-0.24314 3.95557,-2.14593 3.95557,-2.14593 2.26214,-1.33983 2.26214,-1.33983 1.36775,-0.88499 1.36776,-0.88499 h 0.13485 0.13485 l 2.39732,-1.5875 2.39732,-1.5875 h 0.10146 0.10146 l 4.46528,-2.99284 4.46528,-2.99284 1.71979,-1.23047 1.71979,-1.23047 1.44413,-1.00221 1.44412,-1.00221 2.2917,-1.71979 2.2917,-1.7198 0.59357,-0.39687 0.59358,-0.39688 1.75602,-1.31177 1.75602,-1.31177 1.33059,-1.06948 1.33059,-1.06948 0.87591,-0.66145 0.8759,-0.66146 1.10079,-0.86727 1.1008,-0.86727 0.56625,-0.47589 0.56625,-0.47588 1.815,-1.42783 1.815,-1.42783 0.66146,-0.58893 0.66146,-0.58894 1.98437,-1.62934 1.98438,-1.62933 0.66142,-0.567 0.66142,-0.56699 3.17504,-2.74377 3.17503,-2.74377 2.09404,-1.88644 2.09403,-1.88644 1.67628,-1.56262 1.67628,-1.56262 v -0.3945 -0.39451 l -0.97141,-1.21787 -0.97142,-1.21788 -1.34369,-1.26747 -1.34369,-1.26747 -1.92611,-1.31222 -1.92611,-1.31221 h -0.2378 -0.23781 l -0.34962,-0.33152 -0.34963,-0.33152 -1.45521,-0.74346 -1.45521,-0.74346 -0.39687,-0.24396 -0.39688,-0.24396 -2.51354,-1.21237 -2.51354,-1.21237 -3.30729,-1.39657 -3.3073,-1.39658 -2.11666,-0.80468 -2.11667,-0.80467 -1.45521,-0.46104 -1.45521,-0.46103 -0.92604,-0.33702 -0.92604,-0.33702 -1.98437,-0.539476 -1.98438,-0.53948 -1.71979,-0.42807 -1.71979,-0.42807 -0.92604,-0.23477 -0.92605,-0.23476 -2.64583,-0.52352 -2.64583,-0.52352 -2.91042,-0.41477 -2.91042,-0.41477 -3.30729,-0.28269 -3.30729,-0.28269 -3.175,-0.25166 -3.175,-0.25166 -20.6375,-0.16239 -20.6375,-0.16238 -20.6375,0.30308 -20.6375,0.30308 -6.61458,0.24723 -6.61459,0.24724 -10.84791,0.15115 -10.84792,0.15116 -5.95313,-0.26844 -5.95312,-0.26844 -4.21907,-0.39091 -4.21908,-0.39092 -1.86634,-0.26831 -1.86634,-0.2683 -1.85209,-0.29201 -1.85208,-0.292 -2.11667,-0.35453 -2.11666,-0.35453 -2.64584,-0.5726 -2.64583,-0.5726 -1.05834,-0.20472 -1.05833,-0.20473 -1.71979,-0.45041 -1.71979,-0.45041 -0.79375,-0.22229 -0.79375,-0.22229 -1.91001,-0.57357 -1.91001,-0.57357 -0.60353,0.0856 -0.60354,0.0856 0.0834,1.85209 0.0834,1.85208 0.39119,1.5875 0.39119,1.5875 0.15294,1.45521 0.15293,1.45521 0.27277,0.34031 0.27276,0.34032 0.12638,1.969116 0.12637,1.96913 0.2111,-0.13047 0.2111,-0.13047 0.1322,0.46686 0.13221,0.46686 0.17442,1.37576 0.17443,1.37575 0.37388,0.31029 0.37388,0.31029 0.002,0.8275 0.002,0.8275 0.39771,0.76261 0.39772,0.76261 0.16889,1.08947 0.16889,1.08947 0.3578,0.5219 0.35781,0.52189 v 1.04356 1.04356 l 0.1808,-0.1808 0.18079,-0.18079 0.34837,0.82853 0.34837,0.82853 v 0.3854 0.3854 l 0.39688,0.39687 0.39687,0.39688 0.002,0.57641 0.002,0.57641 0.4271,0.79375 0.42709,0.79375 0.10184,0.78402 0.10185,0.78402 0.36533,0.20445 0.36533,0.20444 0.17442,0.92977 0.17443,0.92976 h 0.24947 0.24946 l 0.16663,1.042 0.16662,1.042 0.34072,0.13075 0.34072,0.13075 0.17826,0.81162 0.17827,0.81163 h 0.2203 0.22031 l 0.1753,1.03761 0.1753,1.03761 0.34308,0.13165 0.34307,0.13165 0.1794,0.71478 0.1794,0.71479 0.38381,0.38381 0.38382,0.38382 v 0.49465 0.49465 l 0.29158,0.18021 0.29158,0.18021 0.3783,0.82759 0.37831,0.8276 0.4958,0.79375 0.4958,0.79375 0.83525,1.55681 0.83525,1.55681 0.38031,0.38032 0.38032,0.38031 v 0.51027 0.51027 h 0.39687 0.39688 v 0.52917 0.52916 h 0.24675 0.24675 l 0.15798,0.49774 0.15798,0.49774 0.52131,0.60108 0.52131,0.60108 v 0.48868 0.48868 l 0.33073,0.007 0.33073,0.007 0.66146,1.08874 0.66145,1.08875 0.26459,0.30034 0.26458,0.30034 0.59531,0.84204 0.59532,0.84204 v 0.40759 0.40759 h 0.35216 0.35217 l 0.354,0.66146 0.354,0.66146 h 0.21988 0.21987 v 0.52916 0.52917 h 0.39687 0.39688 v 0.22595 0.22595 l 0.65482,0.76624 0.65482,0.76623 0.40351,0.46303 0.40352,0.46302 v 0.13229 0.13229 l 0.46302,0.47776 0.46302,0.47776 0.92604,1.14212 0.92604,1.14211 0.46302,0.4233 0.46302,0.4233 v 0.33808 0.33807 h 0.39688 0.39687 v 0.26263 0.26262 l 1.91823,2.02221 1.91823,2.02222 2.45552,2.47766 2.45553,2.47766 h 0.0791 0.0791 l 1.78007,1.71979 1.78006,1.71979 h 0.11711 0.11711 l 0.47515,0.46302 0.47515,0.46302 1.43134,1.19063 1.43134,1.19062 0.89809,0.8599 0.8981,0.8599 h 0.13025 0.13024 l 0.70319,0.53677 0.7032,0.53678 0.90712,0.72 0.90712,0.71999 0.48194,0.46302 0.48194,0.46302 h 0.14522 0.14522 l 1.57457,1.11042 1.57457,1.11042 v 0.2125 0.21249 h 0.24084 0.24084 l 1.08208,0.70846 1.08208,0.70846 v 0.21758 0.21759 h 0.24149 0.24149 l 1.41215,0.91357 1.41216,0.91358 0.31956,0.27705 0.31956,0.27705 h 0.25685 0.25686 l 0.36726,0.36726 0.36726,0.36726 1.10582,0.53428 1.10583,0.53427 0.55028,-0.1439 0.55029,-0.1439 2.69285,0.31914 2.69286,0.31914 2.90944,0.2182 2.90945,0.2182 5.95312,-0.0976 5.95313,-0.0976 z m 201.69188,-66.20068 0.3175,-0.3175 v -0.51117 -0.51116 l 0.50062,-0.82498 0.50063,-0.82498 0.18185,-0.8599 0.18186,-0.85989 h 0.20974 0.20975 l 0.16374,-1.02398 0.16374,-1.02397 0.39924,-0.33134 0.39924,-0.33134 v -0.50608 -0.50608 l 0.36718,-0.586 0.36718,-0.58601 0.18385,-1.04482 0.18385,-1.04482 0.37502,-0.5354 0.37501,-0.53541 v -0.676 -0.67601 l 0.36307,-0.52189 0.36306,-0.5219 0.17056,-0.79375 0.17057,-0.79375 0.11783,-0.6223 0.11784,-0.62231 0.23802,-0.30374 0.23803,-0.30373 0.16598,-1.27281 0.16598,-1.2728 0.39974,-0.39974 0.39973,-0.39974 v -1.03408 -1.03408 l 0.37727,-0.99754 0.37727,-0.99754 0.16724,-1.491766 0.16724,-1.49176 0.37312,-0.49261 0.37312,-0.49261 0.008,-1.76704 0.008,-1.76704 0.35112,-0.35112 0.35112,-0.35113 0.0585,-1.62037 0.0585,-1.62037 0.26278,-1.95001 0.26277,-1.95001 0.25794,-2.91041 0.25793,-2.91042 -0.0704,-3.0219 -0.0704,-3.02191 -1.05833,-0.56085 -1.05834,-0.56084 -1.71979,-1.18152 -1.71979,-1.18152 -2.24896,-1.71162 -2.24896,-1.71161 -0.66146,-0.56987 -0.66145,-0.56987 -2.51355,-2.18905 -2.51354,-2.18906 -2.10686,-2.00998 -2.10687,-2.00998 -1.50213,-1.52136 -1.50212,-1.52135 h -0.54584 -0.54585 l -0.42803,0.59531 -0.42802,0.59531 -1.68844,2.77813 -1.68844,2.77812 -1.21603,1.93481 -1.21603,1.9348 -0.24518,0.64489 -0.24519,0.64488 h -0.27113 -0.27113 v 0.33676 0.33676 l -0.92604,1.40613 -0.92604,1.40612 v 0.11191 0.11191 l -0.86596,1.25406 -0.86596,1.25406 -0.32574,0.66146 -0.32574,0.66145 -2.1156,3.41021 -2.11559,3.4102 v 0.87613 0.87613 l 0.34088,0.21158 0.34087,0.21159 2.25966,2.64583 2.25966,2.64583 2.22812,2.67448 2.22811,2.67448 1.32291,1.64814 1.32292,1.64814 0.31345,0.33756 0.31345,0.33756 2.96795,3.806486 2.96795,3.80649 1.10407,1.71979 1.10407,1.71979 1.06662,2.24896 1.06662,2.24896 0.42874,1.05833 0.42875,1.05833 0.41365,1.19063 0.41366,1.19062 0.53029,1.65729 0.53028,1.65729 0.51741,2.02306 0.51741,2.02305 v 0.36305 0.36305 l 0.38338,0.91755 0.38337,0.91754 h 0.62204 0.62205 z m -58.80005,-18.0049 1.53164,-1.91823 0.35829,-0.39687 0.3583,-0.39688 0.45497,-0.55995 0.45497,-0.55996 2.77813,-3.39766 2.77812,-3.397656 1.33643,-1.59863 1.33643,-1.59864 1.67472,-2.11666 1.67472,-2.11667 0.17038,-0.13229 0.17038,-0.13229 2.09666,-2.64584 2.09666,-2.64583 0.87337,-0.91833 0.87338,-0.91832 -0.008,-0.66918 -0.008,-0.66917 -1.47207,-1.5875 -1.47207,-1.5875 -4.67166,-4.88355 -4.67165,-4.88355 -8.59896,-8.62217 -8.59896,-8.62217 -1.30463,-1.04636 -1.30463,-1.04637 -0.92457,-0.79375 -0.92456,-0.79375 -0.9458,-0.80265 -0.94581,-0.80266 -1.05833,-0.77687 -1.05833,-0.77686 -0.33991,-0.27256 -0.33991,-0.27256 -0.32155,-0.27513 -0.32155,-0.27512 -2.51354,-1.85549 -2.51354,-1.855483 -4.00914,-2.820327 -4.00913,-2.820327 -4.45753,-2.913114 -4.45754,-2.913114 -0.26458,-0.219082 -0.26458,-0.219083 -0.39688,-0.182187 -0.39687,-0.182186 -2.38125,-1.593319 -2.38125,-1.593318 -0.39129,-0.180927 -0.39128,-0.180927 -3.31288,-2.100523 -3.31289,-2.100522 -3.30729,-2.041815 -3.30729,-2.041814 -3.00288,-1.891535 -3.00288,-1.891535 h -0.11714 -0.11714 l -0.31956,-0.274728 -0.31957,-0.274727 -5.42395,-3.6008962 -5.42396,-3.600896 -2.19927,-1.303708 -2.19927,-1.303708 -3.75386,-2.037622 -3.75385,-2.037621 -4.10104,-2.017514 -4.10105,-2.017513 -2.51354,-1.182996 -2.51354,-1.182995 -1.45521,-0.655843 -1.45521,-0.655843 -1.71979,-0.7403308 -1.71979,-0.740332 -1.32292,-0.60269 -1.32291,-0.60269 -3.43927,-1.435222 -3.43958,-1.435222 -4.49792,-1.778095 -4.49791,-1.778094 -0.52917,-0.220443 -0.52917,-0.220443 -1.98437,-0.721203 -1.98438,-0.721203 -2.51354,-0.905698 -2.51354,-0.905697 -0.92604,-0.262573 -0.92604,-0.262572 -0.52917,-0.234768 -0.52917,-0.234768 -4.36562,-1.354741 -4.36563,-1.354742 -1.19062,-0.362865 -1.19063,-0.362865 -2.11666,-0.576025 -2.11667,-0.576024 -1.32292,-0.34041 -1.32291,-0.34041 -1.32292,-0.322506 -1.32292,-0.322505 -2.24896,-0.5098 -2.24895,-0.509801 -2.91042,-0.498009 -2.91042,-0.498009 -4.10104,-0.455893 -4.10104,-0.455893 -3.70417,0.169395 -3.70416,0.169395 -3.3073,0.392217 -3.30729,0.392216 -2.11666,0.392483 -2.11667,0.392484 -0.87259,0.0092 -0.8726,0.0092 -3.8899,3.945431 -3.88991,3.945431 -0.72761,0.844276 -0.7276,0.844275 v 0.104783 0.104782 l -1.05429,1.124782 -1.05429,1.124782 -0.40092,0.41907 -0.40092,0.419071 v 0.308534 0.308533 h -0.39687 -0.39688 v 0.383728 0.383728 l -0.33149,0.211585 -0.3315,0.211584 -0.76282,1.12448 -0.76282,1.124479 h -0.2286 -0.2286 v 0.350754 0.350755 l -0.66146,0.621407 -0.66146,0.621408 v 0.322447 0.322447 l -0.39687,0.152295 -0.39688,0.152296 v 0.4051788 0.405178 h -0.27288 -0.27289 l -0.17207,0.463021 -0.17206,0.463021 -1.01026,1.377765 -1.01025,1.377765 v 0.275881 0.275881 h -0.27835 -0.27835 l -0.2767,0.79375 -0.2767,0.79375 h -0.19623 -0.19623 l -0.30987,0.595312 -0.30986,0.595313 -0.52355,0.79375 -0.52354,0.79375 -0.32797,0.661458 -0.32797,0.661459 -0.3363,0.211584 -0.3363,0.211585 v 0.364829 0.364829 l -0.33073,0.349756 -0.33073,0.349757 -0.8994,1.719663 -0.89941,1.719663 -0.37674,0.727604 -0.37675,0.727605 h -0.2452 -0.24521 v 0.664048 0.664047 l -0.52916,0.453087 -0.52917,0.453087 v 0.363396 0.3633972 l -0.36492,0.702281 -0.36493,0.702282 -0.91923,1.984375 -0.91923,1.984375 -0.56793,1.219605 -0.56793,1.219605 v 0.245805 0.245805 l -0.52916,1.03793 -0.52917,1.037929 v 0.340931 0.340931 h -0.25259 -0.2526 l -0.17398,0.992188 -0.17397,0.992187 -0.36718,0.586004 -0.36718,0.586004 v 0.416724 0.416724 l -0.52917,1.037253 -0.52916,1.037252 -0.002,0.473561 -0.002,0.473562 -0.35801,0.686073 -0.35801,0.686074 -0.19221,1.024575 -0.19221,1.024576 -0.37419,0.723607 -0.3742,0.723608 v 0.806889 0.806889 h -0.24055 -0.24056 l -0.33001,1.91823 -0.33002,1.918229 -0.35547,0.417708 -0.35547,0.417709 -0.002,1.302083 -0.002,1.302083 -0.35672,0.68359 -0.35672,0.6836 -0.19334,1.96224 -0.19334,1.96224 -0.21582,0.26458 -0.21582,0.26458 -0.31825,3.04271 -0.31825,3.04271 -0.21516,0.40451 -0.21515,0.40452 -0.29316,4.98764 -0.29316,4.98764 -0.22364,1.09014 -0.22363,1.09013 -0.0439,3.43959 -0.0439,3.43958 0.26302,2.66155 0.26302,2.66155 0.14766,0.3848 0.14766,0.3848 1.25245,0.46909 1.25245,0.46909 2.64583,0.88198 2.64584,0.88199 3.43958,0.92488 3.43958,0.92487 1.98438,0.4248 1.98437,0.4248 2.64584,0.4243 2.64583,0.42431 4.7625,0.25652 4.7625,0.25653 16.27188,0.1283 16.27187,0.1283 42.59792,0.25449 42.59791,0.25449 13.95689,0.39094 13.95689,0.39095 2.17575,0.27281 2.17576,0.27282 h 1.4261 1.4261 l 2.81417,0.41158 2.81417,0.41157 3.04271,0.52295 3.04271,0.52295 2.11667,0.41635 2.11666,0.41635 1.32292,0.35534 1.32292,0.35533 1.98437,0.55167 1.98438,0.55168 3.70416,1.20886 3.70417,1.20885 3.30729,1.40941 3.30729,1.4094 2.51355,1.31256 2.51354,1.312557 0.66146,0.36431 0.66145,0.36431 0.79375,0.49861 0.79375,0.4986 2.64584,1.74477 2.64583,1.74476 1.71979,1.44354 1.71979,1.44354 1.05834,1.00201 1.05833,1.00202 0.43322,0.003 0.43322,0.003 z m 108.50387,-27.342386 1.25241,-0.77431 0.67595,-1.31235 0.67594,-1.31235 0.0827,-6.69652 0.0827,-6.69652 -0.40318,-1.3869 -0.40318,-1.3869 -0.8076,-0.82602 -0.80759,-0.82603 -0.98861,-0.47315 -0.9886,-0.47314 -2.11667,-0.004 -2.11666,-0.004 -1.24247,0.60348 -1.24246,0.60349 -0.63178,0.83749 -0.63179,0.83748 -0.30856,0.89938 -0.30857,0.89938 v 6.79255 6.79255 l 0.42207,1.23871 0.42207,1.2387 1.05652,0.90434 1.05651,0.90434 0.96881,0.27341 0.96881,0.27342 2.04039,-0.076 2.0404,-0.076 z m -5.64769,-2.74119 -0.84366,-0.51441 -0.27934,-1.00595 -0.27935,-1.00595 v -5.29167 -5.29167 l 0.26271,-0.94569 0.2627,-0.94568 0.59572,-0.55331 0.59571,-0.55331 0.79375,-0.0623 0.79375,-0.0622 0.74796,0.0399 0.74796,0.0399 0.77339,0.77339 0.7734,0.7734 v 6.66139 6.6614 l -0.89958,0.89958 -0.89959,0.89959 -1.15093,-9.9e-4 -1.15094,-9.9e-4 z m 37.737248,3.30009 1.10908,-0.39131 0.78226,-0.55701 0.78226,-0.55702 0.58072,-1.1022 0.58072,-1.1022 0.009,-2.4246 0.009,-2.4246 -0.79375,-1.1199 -0.79375,-1.1199 -0.82604,-0.43898 -0.82605,-0.43898 1.02613,-0.86148 1.02613,-0.86149 0.44104,-0.84357 0.44104,-0.84358 3.6e-4,-1.5875 3.5e-4,-1.5875 -0.31573,-0.94512 -0.31574,-0.94511 -0.85491,-0.82741 -0.85491,-0.82742 -0.98369,-0.41028 -0.98369,-0.41028 h -1.87112 -1.87112 l -0.98165,0.50493 -0.98165,0.50494 -0.712,0.75183 -0.71201,0.75184 -0.53895,1.19062 -0.53896,1.19063 -0.006,0.46302 -0.006,0.46302 h 1.71979 1.71979 v -0.42333 -0.42334 l 0.89959,-0.89958 0.89958,-0.89958 h 1.20233 1.20233 l 0.74236,0.63855 0.74236,0.63854 v 1.73669 1.73669 l -0.68187,0.68187 -0.68187,0.68187 -1.51301,0.15615 -1.513,0.15616 0.0782,1.48309 0.0782,1.48309 1.32292,0.0717 1.32292,0.0717 0.61788,0.31578 0.61789,0.31578 0.3743,0.72382 0.3743,0.72382 v 1.59647 1.59646 l -0.73619,0.82394 -0.73618,0.82394 -1.21073,0.13646 -1.21074,0.13647 -0.95611,-0.4537 -0.95611,-0.45371 -0.45518,-1.03169 -0.45518,-1.03169 h -1.52097 -1.52096 l -0.12717,0.20575 -0.12716,0.20576 0.4726,1.39602 0.4726,1.39602 0.76343,0.80309 0.76343,0.8031 0.79203,0.41337 0.79204,0.41337 0.66317,0.20172 0.66317,0.20173 1.48809,0.0227 1.48809,0.0228 z m -46.021718,-1.45422 v -1.58095 l -4.207,-0.0727 -4.20701,-0.0727 3.48391,-4.71034 3.4839,-4.71033 0.59081,-1.44738 0.59081,-1.44737 -10e-4,-1.25063 -0.001,-1.25062 -0.29238,-1.05833 -0.29237,-1.05833 -0.98106,-0.93593 -0.98107,-0.93592 -1.07088,-0.32085 -1.07089,-0.32084 -1.5568,10e-4 -1.55681,10e-4 -0.92604,0.25767 -0.92604,0.25766 -0.92883,0.76623 -0.92882,0.76622 -0.59116,1.18369 -0.59117,1.18369 -0.16673,0.83365 -0.16673,0.83365 h 1.69971 1.69972 l 0.33202,-0.9182 0.33203,-0.9182 0.75416,-0.53701 0.75415,-0.537 h 1.23628 1.23628 l 0.7734,0.77339 0.7734,0.7734 -0.006,1.01254 -0.006,1.01254 -0.48901,1.05833 -0.48901,1.05834 -4.13539,5.50351 -4.13539,5.50351 v 1.4418 1.4418 h 6.48229 6.48229 z m 33.602088,-0.007 v -1.5875 h -4.131468 -4.13148 l 0.46952,-0.71657 0.46952,-0.71658 2.95012,-3.97978 2.95012,-3.97978 0.547258,-1.19062 0.54725,-1.19063 0.17832,-1.06816 0.17832,-1.06816 -0.2923,-1.31309 -0.2923,-1.31309 -0.581338,-0.86441 -0.58133,-0.86441 -1.30872,-0.65694 -1.30872,-0.65694 -1.99858,0.006 -1.99857,0.006 -1.05833,0.48999 -1.05833,0.48999 -0.71342,0.76097 -0.71342,0.76097 -0.52058,1.19062 -0.52059,1.19063 -0.0889,0.58328 -0.0889,0.58329 0.19844,0.012 0.19844,0.012 h 1.5875 1.5875 v -0.51996 -0.51996 l 0.82116,-0.93525 0.82116,-0.93524 h 1.36892 1.36893 l 0.57776,0.40467 0.57775,0.40468 0.24994,0.90521 0.24994,0.90521 -0.19768,0.87293 -0.19768,0.87292 -0.42024,0.79375 -0.42023,0.79375 -3.98009,5.29167 -3.98008,5.29166 -0.007,1.52136 -0.007,1.52135 h 6.35 6.349998 z m -417.115628,0.97328 1.5875,-0.33861 1.1218,-0.71584 1.12181,-0.71584 0.72727,-1.09898 0.72727,-1.09899 0.097,-1.92002 0.097,-1.92002 -0.30318,-0.91864 -0.30318,-0.91864 -0.89818,-0.92483 -0.89819,-0.92483 -1.27383,-0.43697 -1.27384,-0.43696 -2.35156,-0.51599 -2.35156,-0.51598 -1.12344,-0.65838 -1.12343,-0.65838 -0.17778,-0.94763 -0.17777,-0.94763 0.47777,-0.97745 0.47777,-0.97746 1.02336,-0.4997 1.02335,-0.4997 1.84945,0.0116 1.84945,0.0116 1.69425,0.85996 1.69425,0.85996 0.0987,-0.10725 0.0987,-0.10725 0.6921,-1.02911 0.6921,-1.02911 v -0.32363 -0.32364 l -1.65365,-0.79829 -1.65364,-0.7983 -0.79375,-0.18702 -0.79375,-0.18701 -2.32882,0.01 -2.32882,0.01 -1.50046,0.68693 -1.50046,0.68693 -0.5077,0.45067 -0.5077,0.45066 -0.62137,1.32291 -0.62138,1.32292 0.003,1.71979 0.003,1.71979 0.49455,1.08905 0.49456,1.08905 0.88869,0.67316 0.8887,0.67315 1.32291,0.39647 1.32292,0.39646 2.29291,0.45009 2.29291,0.4501 0.82254,0.50021 0.82254,0.50022 0.27937,0.72748 0.27938,0.72748 -0.14237,0.89271 -0.14237,0.89271 -0.4737,0.52344 -0.47371,0.52344 -0.67889,0.35107 -0.67889,0.35106 -1.58572,0.17941 -1.58573,0.1794 -1.70476,-0.43552 -1.70476,-0.43552 -1.02043,-0.67365 -1.02043,-0.67365 -0.78827,0.75005 -0.78828,0.75005 -0.26273,0.48471 -0.26273,0.4847 0.48394,0.39075 0.48393,0.39075 1.5875,0.77145 1.5875,0.77146 1.45521,0.24039 1.45521,0.24039 1.19062,0.0254 1.19063,0.0254 z m -13.89063,-1.50244 v -1.5875 h -5.69668 -5.69669 l 0.0743,-3.24115 0.0743,-3.24115 4.7625,-0.0485 4.7625,-0.0485 v -1.53898 -1.53897 l -4.83674,-0.0721 -4.83674,-0.0721 0.0742,-3.23514 0.0742,-3.23515 5.6224,-0.0714 5.62239,-0.0714 v -1.58223 -1.58224 h -7.27604 -7.27604 v 11.37708 11.37709 h 7.27604 7.27604 z m 30.42709,-8.20209 v -9.78958 h 3.175 3.175 v -1.59138 -1.59138 l -8.00365,0.07 -8.00365,0.07 -0.0207,1.52135 -0.0207,1.52136 h 3.12953 3.12953 v 9.61319 9.6132 l 0.17639,0.17639 0.17638,0.17639 h 1.54341 1.5434 z m 10.05416,8.06979 v -1.71979 h -1.71979 -1.71979 v 1.71979 1.7198 h 1.71979 1.71979 z m 289.60775,-7.98898 1.03705,-1.77128 0.26458,-0.47284 0.26459,-0.47285 1.4552,-2.25863 1.45521,-2.25863 0.26459,-0.46365 0.26458,-0.46366 2.3151,-3.49869 2.31511,-3.49869 v -0.23376 -0.23375 l 0.37091,-0.30783 0.37092,-0.30784 0.17923,-0.7141 0.17922,-0.7141 0.1879,-0.13494 0.1879,-0.13494 0.68757,-1.5875 0.68756,-1.5875 0.41138,-1.32292 0.41137,-1.32292 0.0536,-0.92604 0.0536,-0.92604 -0.0385,-0.54753 -0.0385,-0.54752 -1.05041,-1.43685 -1.05041,-1.43685 -0.20636,-0.27084 -0.20636,-0.27083 -0.91542,-1.316665 -0.91542,-1.316665 -0.20906,-0.08819 -0.20906,-0.08819 v -0.374826 -0.374827 l -0.19843,-0.01126 -0.19844,-0.01126 -1.19063,-1.721875 -1.19062,-1.721876 -0.92604,-1.283429 -0.92604,-1.283429 -0.39688,-0.585668 -0.39687,-0.585669 -0.80292,-1.094118 -0.80291,-1.094118 -0.44044,-0.661458 -0.44043,-0.661459 -1.60092,-2.19984 -1.60093,-2.199839 v -0.206549 -0.206549 l -0.52916,-0.478889 -0.52917,-0.47889 v -0.364171 -0.364172 l -0.39687,-0.152295 -0.39688,-0.152296 v -0.274746 -0.275172 l -0.86946,-1.085583 -0.86945,-1.085584 -0.51961,-0.79375 -0.5196,-0.79375 -0.1323,-0.264583 -0.13229,-0.264583 -1.75167,-2.645834 -1.75168,-2.645833 -1.35718,-2.3232212 -1.35718,-2.323222 v -0.149476 -0.149477 l -0.48979,-0.702302 -0.48979,-0.702302 -1.13476,-2.116667 -1.13476,-2.116666 -0.18943,-0.264584 -0.18943,-0.264583 -0.7868,-1.455208 -0.7868,-1.455209 -1.96328,-3.394354 -1.96328,-3.394355 -0.44496,-0.7066868 -0.44495,-0.706687 -0.57557,-1.058334 -0.57557,-1.058333 -0.96385,-1.535463 -0.96385,-1.535463 -1.91823,-2.927617 -1.91823,-2.927618 v -0.233274 -0.233273 l -0.19844,-0.0017 -0.19844,-0.0017 -0.52916,-0.848943 -0.52917,-0.848943 -0.39687,-0.572205 -0.39688,-0.572205 -1.31116,-1.818325 -1.31116,-1.818325 -1.72264,-2.248958 -1.72263,-2.248959 -1.33183,-1.583104 -1.33183,-1.583104 -2.0886,-2.385646 -2.0886,-2.385646 -3.33536,-3.332885 -3.33536,-3.332886 -3.175,-2.765459 -3.175,-2.765459 -1.71979,-1.297647 -1.71979,-1.297647 -0.13229,-0.150128 -0.13229,-0.150128 -2.38125,-1.748675 -2.38125,-1.748676 -3.175,-2.114006 -3.175,-2.114006 -0.89445,-0.497449 -0.89445,-0.497449 -0.42847,-0.269989 -0.42847,-0.26999 -1.11922,-0.722198 -1.11922,-0.722198 h -0.16908 -0.16909 l -1.48982,-0.894796 -1.48982,-0.894796 -1.85208,-0.994718 -1.85208,-0.994719 -0.39688,-0.327538 -0.39687,-0.327538 -0.79375,-0.396136 -0.79375,-0.396135 -2.31412,-0.188606 -2.31412,-0.188606 -0.12059,-0.195124 -0.12059,-0.195124 -1.42843,-0.05779 -1.42843,-0.05779 -2.75144,-0.239931 -2.75145,-0.239931 -3.30729,-0.303807 -3.30729,-0.303807 -8.59896,0.129969 -8.59896,0.129969 -2.51354,0.291444 -2.51354,0.291445 -2.91042,0.293808 -2.91042,0.293809 -2.77812,0.356154 -2.77813,0.356154 -1.38906,0.278112 -1.38906,0.278111 -1.38906,0.266178 -1.38907,0.266178 -1.71979,0.290872 -1.71979,0.290871 -0.40556,0.203057 -0.40556,0.203058 -0.78507,0.155441 -0.78506,0.155441 -0.92604,0.07092 -0.92604,0.07092 -0.17129,0.241977 -0.17128,0.241978 -1.15163,0.214809 -1.15164,0.214808 -1.71979,0.429115 -1.71979,0.429115 -0.43045,0.226194 -0.43045,0.226193 -1.02476,0.184891 -1.02476,0.18489 -0.26458,0.199534 -0.26458,0.199534 -1.19063,0.275202 -1.19062,0.275203 -1.19063,0.418751 -1.19062,0.418751 -0.43045,0.244539 -0.43045,0.244539 -1.02476,0.187931 -1.02476,0.187931 -0.52189,0.359335 -0.5219,0.359335 h -0.47029 -0.4703 v 0.264584 0.264583 h -0.59923 -0.59923 l -0.98731,0.529167 -0.98731,0.529166 h -0.49773 -0.49773 l -0.32937,0.396875 -0.32938,0.396875 h -0.37899 -0.379 l -1.24225,0.557092 -1.24226,0.557091 -0.88929,0.413048 -0.8893,0.413047 h -0.35609 -0.35609 l -0.13537,0.352778 -0.13537,0.352778 h -0.52186 -0.52186 l -0.18098,0.292831 -0.18098,0.292831 -0.22745,-0.358977 -0.22746,-0.358977 -0.004,0.441998 -0.004,0.441998 -0.79606,0.174844 -0.79606,0.174844 0.15021,0.243054 0.15022,0.243054 h -0.66136 -0.66146 l -0.15537,0.251396 -0.15537,0.251396 -1.55346,0.789475 -1.55347,0.789413 -0.15886,-0.158864 -0.15887,-0.158864 v 0.286642 0.286643 l -1.65364,0.811589 -1.65365,0.81159 -1.19062,0.796816 -1.19063,0.796815 -0.33073,0.0011 -0.33073,0.0011 v 0.259543 0.259542 l -0.66145,0.166016 -0.66146,0.166015 v 0.2359 0.235901 l -0.33073,0.0059 -0.33073,0.0059 -0.66146,0.5174 -0.66146,0.5174 -0.47863,0.0059 -0.47864,0.0059 0.13888,0.224707 0.13887,0.224707 -0.71857,0.370605 -0.71857,0.370606 -0.34963,0.330729 -0.34963,0.330729 h -0.34967 -0.34967 l -0.15229,0.396875 -0.1523,0.396875 h -0.40518 -0.40518 v 0.232484 0.232484 l -0.79375,0.328782 -0.79375,0.328782 v 0.232484 0.232484 h -0.40518 -0.40517 l -0.1523,0.396875 -0.15229,0.396875 -0.30243,0.0046 -0.30242,0.0046 -0.60975,0.643041 -0.60976,0.643041 -0.39325,-0.150905 -0.39325,-0.150904 0.077,0.264156 0.077,0.264156 -2.38125,1.828145 -2.38125,1.828144 -0.63508,0.519847 -0.63507,0.519846 -0.4313,0.396875 -0.4313,0.396875 -0.7267,0.379259 -0.72671,0.379259 -0.15006,0.597891 -0.15006,0.59789 0.17282,0.279621 0.17281,0.279621 0.71199,-3.61e-4 0.71199,-3.62e-4 2.24896,-0.396647 2.24896,-0.396647 5.88698,-0.260636 5.88698,-0.260636 6.01927,0.258454 6.01927,0.258455 3.83646,0.416971 3.83645,0.416971 2.51355,0.399414 2.51354,0.399414 2.64583,0.533709 2.64583,0.533709 1.24034,0.372013 1.24034,0.372013 h 0.47061 0.47061 l 1.06718,0.36299 1.06717,0.36299 1.45521,0.421793 1.45521,0.421793 1.85208,0.578112 1.85209,0.578112 2.94521,0.997405 2.94522,0.997404 1.81728,0.701605 1.81729,0.701604 1.85208,0.756524 1.85208,0.756524 2.64584,1.102834 2.64583,1.102835 1.45521,0.658566 1.45521,0.658566 1.5875,0.734227 1.5875,0.734227 3.02633,1.425007 3.02634,1.425007 6.63096,3.331836 6.63095,3.331837 3.57188,1.8624394 3.57187,1.86244 3.43959,1.848343 3.43958,1.848343 1.45521,0.788562 1.45521,0.788561 1.85208,0.984048 1.85208,0.984047 1.05834,0.590987 1.05833,0.590986 1.98438,1.085935 1.98437,1.085934 1.45521,0.769934 1.45521,0.769935 1.5875,0.872682 1.5875,0.872682 1.79845,1.094401 1.79846,1.094401 0.4505,0.2677936 0.4505,0.267793 0.79375,0.501749 0.79375,0.501749 2.11667,1.347124 2.11667,1.347125 0.0882,0.198437 0.0882,0.198438 h 0.27708 0.27708 l 1.28898,0.926041 1.28898,0.926042 h 0.14285 0.14285 l 0.31956,0.25938 0.31956,0.259381 5.76788,4.108131 5.76787,4.108132 0.31754,0.253494 0.31754,0.253495 0.92605,0.745218 0.92604,0.745219 1.5875,1.164517 1.5875,1.164518 0.13229,0.162734 0.13229,0.162734 0.86455,0.603897 0.86455,0.603897 4.6917,3.834759 4.6917,3.834759 1.17135,0.972555 1.17136,0.972555 0.28385,0.267326 0.28386,0.267326 3.70416,3.153818 3.70417,3.15382 0.92604,0.87179 0.92604,0.87179 0.68463,0.60186 0.68463,0.60185 1.79007,1.5875 1.79008,1.5875 0.99433,0.92605 0.99434,0.92604 3.27365,3.04271 3.27365,3.0427 6.48648,6.4099 6.48648,6.40991 0.55045,0.006 0.55046,0.006 z m 43.04395,-11.02435 -0.0618,-4.19668 -0.27332,-0.9627 -0.27331,-0.9627 -0.164,-2.51354 -0.16399,-2.51355 -0.23218,-0.29619 -0.23218,-0.2962 -0.2335,-2.08505 -0.23351,-2.08506 -0.42108,-1.4552 -0.42108,-1.45521 -0.003,-1.12448 -0.003,-1.124482 h -0.24067 -0.24068 l -0.31635,-1.875545 -0.31636,-1.875545 -0.36738,-0.704142 -0.36738,-0.704143 -0.002,-0.801024 -0.002,-0.801024 -0.37136,-0.530194 -0.37136,-0.530193 -0.16035,-1.008933 -0.16034,-1.008933 -0.39434,-0.562991 -0.39433,-0.562992 -0.002,-0.668733 -0.002,-0.668733 -0.37031,-0.709781 -0.37031,-0.709782 -0.19103,-0.877718 -0.19104,-0.877719 -0.36307,-0.521892 -0.36307,-0.521892 v -0.583688 -0.583688 l -0.39687,-0.396875 -0.39688,-0.396875 v -0.43029 -0.43029 l -0.5519,-1.242255 -0.5519,-1.242255 -0.50643,-1.075723 -0.50643,-1.075722 V 15.90743 15.461799 h -0.25955 -0.25954 l -0.17287,-0.727604 -0.17286,-0.727604 -0.33005,-0.396875 -0.33004,-0.396875 -0.1985,-0.649119 -0.19849,-0.649118 -0.36197,-0.361968 -0.36197,-0.361968 -0.002,-0.444122 -0.002,-0.444122 -0.52568,-0.7937502 -0.52568,-0.79375 -0.002,-0.463021 -0.002,-0.463021 h -0.2427 -0.2427 l -0.45639,-1.195028 -0.45638,-1.195028 -0.6432,-0.161433 -0.64321,-0.161434 -0.28079,0.280793 -0.28079,0.280794 0.0475,5.5074392 0.0475,5.507439 -0.2777,3.704167 -0.2777,3.704166 -0.40438,2.910417 -0.40438,2.910417 -0.27776,1.5875 -0.27775,1.5875 -0.35363,1.984375 -0.35362,1.984375 -0.31396,1.455208 -0.31397,1.455208 -0.92559,3.774887 -0.92559,3.77488 0.16276,0.59074 0.16275,0.59074 1.25384,0.99645 1.25384,0.99645 1.10677,0.98792 1.10678,0.98793 0.62825,0.52917 0.62824,0.52917 4.28928,3.69006 4.28927,3.69007 2.0455,1.52328 2.0455,1.52328 0.66145,0.33149 0.66146,0.33149 0.39688,0.31483 0.39687,0.31483 0.52917,0.13356 0.52917,0.13356 0.52916,-0.0401 0.52917,-0.0401 z m -25.52336,-22.182292 0.3175,-0.3175 0.002,-0.410104 0.002,-0.410104 0.36624,-0.701941 0.36624,-0.701941 0.56879,-2.076184 0.56878,-2.076184 0.36146,-1.190625 0.36145,-1.190625 0.54307,-2.778125 0.54306,-2.778125 0.42123,-2.645833 0.42123,-2.645834 0.27665,-4.005284 0.27664,-4.005283 -0.28158,-4.7259672 -0.28158,-4.725966 -0.2731,-0.924295 -0.27309,-0.924295 v -1.439902 -1.439902 l -0.49509,-0.54622 -0.4951,-0.546219 -0.96011,-1.386349 -0.96012,-1.386349 v -0.146358 -0.146357 l -1.12448,-1.510002 -1.12447,-1.5100018 -0.26459,-0.29831 -0.26458,-0.29831 -0.39688,-0.586498 -0.39687,-0.586499 -0.78423,-1.03342 -0.78422,-1.033421 h -0.20796 -0.20797 v -0.29401 -0.294011 l -1.12329,-1.359635 -1.12329,-1.359636 -0.26577,-0.307108 -0.26577,-0.307109 -0.92604,-1.130493 -0.92604,-1.130494 -0.46303,-0.407137 -0.46302,-0.407136 v -0.338074 -0.338074 h -0.37904 -0.37905 l -0.16795,-0.529167 -0.16795,-0.529166 h -0.37904 -0.37905 v -0.264584 -0.264583 l -0.99219,-1.01288 -0.99218,-1.012879 -1.2532,-1.302225 -1.25319,-1.302224 -1.06003,-1.058334 -1.06002,-1.058333 -0.002,-0.198438 -0.002,-0.198437 h -0.28404 -0.28405 l -1.30906,-1.322917 -1.30907,-1.322916 h -0.25898 -0.25897 v -0.544782 -0.544782 l -0.28847,0.178282 -0.28846,0.178282 -0.96831,-0.900073 -0.9683,-0.900074 -1.63276,-1.37926 -1.63275,-1.37926 h -0.1621 -0.1621 l -0.77592,-0.79375 -0.77591,-0.79375 h -0.26036 -0.26035 l -0.21158,-0.337081 -0.21159,-0.337081 -0.69048,-0.438444 -0.69048,-0.438444 -0.37331,-0.373313 -0.37331,-0.373313 -0.59727,-0.319645 -0.59726,-0.319646 0.15532,-0.251308 0.15531,-0.251308 h -0.49307 -0.49308 l -0.94799,-0.859896 -0.94798,-0.859896 -0.92327,-0.487167 -0.92328,-0.487167 -0.78817,-0.703458 -0.78818,-0.703458 -1.25687,-0.647009 -1.25687,-0.647008 -0.13246,-0.345179 -0.13245,-0.345179 h -0.48525 -0.48524 l -0.17412,-0.280464 -0.17361,-0.280904 -0.56961,-0.252191 -0.56961,-0.252191 -0.79375,-0.522428 -0.79375,-0.522428 -0.66146,-0.328154 -0.66146,-0.328155 -0.13249,-0.137677 -0.13249,-0.137677 -0.92584,-0.502919 -0.92585,-0.502918 -0.72234,-0.373732 -0.72234,-0.373731 -0.15317,-0.247829 -0.15317,-0.247829 h -0.5004 -0.50041 l -0.25912,-0.463021 -0.25911,-0.463021 -0.16016,0.08527 -0.16016,0.08527 -1.17991,-0.571181 -1.1799,-0.57118 -0.14937,-0.241691 -0.14937,-0.241691 h -0.49466 -0.49465 l -0.36197,-0.361968 -0.36197,-0.361968 -0.64911,-0.202242 -0.64912,-0.202242 -2.64584,-1.253869 -2.64583,-1.253869 -0.96603,-0.430879 -0.96602,-0.430879 -0.35689,-0.0084 -0.35689,-0.0084 -0.51359,-0.388461 -0.51359,-0.38846 h -0.4462 -0.4462 l -0.32938,-0.396875 -0.32938,-0.396875 -0.56291,-0.0016 -0.56292,-0.0016 -0.75785,-0.395245 -0.75784,-0.395245 -0.30049,-0.009 -0.30049,-0.009 -1.05833,-0.511211 -1.05833,-0.511212 -0.54474,-0.009 -0.54475,-0.009 -0.51359,-0.38846 -0.51359,-0.38846 -0.67703,-0.0084 -0.67704,-0.0084 -0.51359,-0.388461 -0.51359,-0.38846 -0.66873,-0.0084 -0.66873,-0.0084 -0.5219,-0.363711 -0.52189,-0.363711 -1.12448,-0.188712 -1.12448,-0.188712 v -0.218071 -0.21807 l -1.04446,-0.176461 -1.04445,-0.17646 -0.42165,0.235965 -0.42164,0.235964 0.55752,0.708776 0.55752,0.708776 2.1339,1.056943 2.1339,1.056942 0.29604,0.239993 0.29603,0.239992 0.95594,0.532482 0.95594,0.532481 0.62124,0.35561 0.62124,0.355609 2.92074,2.082721 2.92073,2.082721 2.91042,2.953722 2.91042,2.953723 1.38906,1.544302 1.38906,1.544303 v 0.232275 0.232275 h 0.21973 0.21974 l 0.8273,1.124479 0.8273,1.124479 0.79919,0.926042 0.79919,0.926042 0.35758,0.396875 0.35758,0.396875 1.6988,2.244303 1.6988,2.244304 0.34896,0.372508 0.34895,0.372507 0.44317,0.690481 0.44318,0.69048 1.39125,1.852083 1.39124,1.852084 0.23381,0.287223 0.23382,0.287223 1.8077,2.623194 1.8077,2.623193 0.20688,0.08819 0.20688,0.08819 v 0.229271 0.22927 l 0.8599,1.230938 0.85989,1.230938 0.26459,0.434928 0.26458,0.434927 0.68917,0.927086 0.68916,0.927086 0.10459,0.264584 0.10458,0.264583 1.05833,1.5875 1.05834,1.5875 0.33073,0.349628 0.33073,0.349628 v 0.248398 0.248398 l 0.92604,1.31749 0.92604,1.317489 v 0.115584 0.115583 l 1.27752,1.937651 1.27753,1.937651 1.64184,2.7781249 1.64185,2.778125 2.23358,3.704167 2.23358,3.704167 0.20486,0.32356 0.20487,0.323561 1.85125,2.719148 1.85126,2.719147 2.09912,2.9104171 2.09911,2.910417 0.73935,1.058333 0.73936,1.058333 4.48756,5.953125 4.48756,5.953125 0.36731,0.396875 0.36732,0.396875 0.77415,1.058334 0.77415,1.058333 0.19843,0.08819 0.19844,0.08819 v 0.374826 0.374827 h 0.21355 0.21356 l 1.29807,1.785937 1.29808,1.785938 0.15074,0.132291 0.15075,0.132292 0.99312,1.371522 0.99311,1.371523 0.45337,0.119139 0.45336,0.11914 0.14552,0.03069 0.14552,0.03069 z m -300.17442,-75.551771 1.64889,-1.521354 4.09912,-3.585878 4.09911,-3.585878 3.57188,-2.929434 3.57187,-2.929434 2.74327,-2.745105 2.74326,-2.745105 2.185,-2.910416 2.18499,-2.910417 1.34912,-2.358842 1.34911,-2.358842 0.7865,-1.88927 0.78651,-1.889271 0.689,-2.366471 0.689,-2.366471 0.39994,-2.645833 0.39993,-2.645833 -0.10039,-10.715625 -0.10039,-10.715622 -0.59469,-1.98438 -0.5947,-1.98437 -0.64284,-1.10227 -0.64284,-1.10227 -1.06128,-0.90841 -1.06127,-0.90841 -1.35222,-0.43672 -1.35223,-0.43672 h -1.66154 -1.66154 l -1.8138,0.5593 -1.81381,0.5593 -1.32292,0.66795 -1.32292,0.66796 -1.5875,1.07333 -1.5875,1.07332 -3.0427,2.42315 -3.04271,2.42315 -3.57188,3.111445 -3.57187,3.111446 -1.79418,1.722618 -1.79418,1.722619 -0.25634,0.478981 -0.25634,0.478981 v 27.120402 27.119961 l 0.26073,0.685785 0.26074,0.685785 0.59916,0.24071 0.59916,0.24071 0.46969,0.01677 0.4697,0.01677 z m 6.01067,-34.920626 v -17.19219 l 2.44739,-2.103848 2.4474,-2.103847 1.98437,-1.654852 1.98438,-1.654852 1.9127,-1.057407 1.91271,-1.057407 1.10355,0.08163 1.10355,0.08163 0.55562,0.746659 0.55562,0.746659 0.0812,10.498133 0.0812,10.498132 -0.30296,1.5875 -0.30295,1.5875 -0.81103,1.984375 -0.81104,1.984375 -1.37875,2.116667 -1.37875,2.116667 -1.51273,1.653036 -1.51273,1.653037 -3.74866,3.086617 -3.74867,3.086616 -0.33073,0.253681 -0.33073,0.253681 z m 335.7007,36.272446 0.60591,-0.162308 0.38628,-0.746982 0.38628,-0.746981 v -27.026359 -27.026799 l -0.42023,-0.833736 -0.42023,-0.833736 -3.30566,-2.976563 -3.30566,-2.976562 h -0.86331 -0.86332 l -0.50402,0.556752 -0.50403,0.556752 -0.1376,15.119811 -0.13759,15.11981 -0.0608,-0.324936 -0.0609,-0.324936 -1.36302,-3.511522 -1.36303,-3.511523 -3.77729,-9.658714 -3.77729,-9.658714 -3.29618,-8.068365 -3.29617,-8.06837 -1.09541,-2.62705 -1.09542,-2.62704 -0.29092,-0.35054 -0.29093,-0.35055 -3.38971,-2.24793 -3.38972,-2.24794 h -0.76936 -0.76937 l -0.50402,0.55689 -0.50403,0.5569 -0.0764,27.025918 -0.0764,27.025922 0.15536,0.864224 0.15535,0.864223 3.94962,2.641506 3.94962,2.641505 h 0.74951 0.74951 l 0.51359,-0.375417 0.51359,-0.375418 0.13229,-15.433437 0.1323,-15.433436 0.16975,0.396875 0.16976,0.396875 1.45826,3.571875 1.45826,3.571875 2.0278,5.027083 2.0278,5.027084 3.92355,10.054166 3.92355,10.054167 1.91631,5.159375 1.9163,5.159375 0.42621,0.573988 0.4262,0.573988 2.77812,2.489368 2.77813,2.489368 0.52916,0.302036 0.52917,0.302036 0.13229,0.0044 0.13229,0.0044 z m -300.91545,-32.096281 3.95119,-2.388483 0.3481,-0.348098 0.34809,-0.348098 1.19038,-4.219024 1.19038,-4.219024 0.69266,-2.572722 0.69265,-2.572722 0.67732,-0.443794 0.67731,-0.443794 6.0999,-3.08498 6.09989,-3.08498 2.74255,-1.254217 2.74255,-1.254216 0.0773,0.07967 0.0773,0.07967 1.63194,3.96875 1.63193,3.96875 0.38296,0.595312 0.38297,0.595313 h 0.88006 0.88006 l 4.20707,-1.616328 4.20707,-1.616328 0.43923,-0.387519 0.43922,-0.38752 0.16167,-0.64412 0.16166,-0.644121 -1.29753,-2.974428 -1.29754,-2.974428 -4.1596,-9.392711 -4.15961,-9.39271 -1.80077,-3.96875 -1.80077,-3.96875 -2.64216,-5.95312 -2.64215,-5.95313 -0.46823,-0.98163 -0.46823,-0.98163 -0.75968,-0.26483 -0.75968,-0.26482 -0.62314,0.23691 -0.62313,0.23692 -3.00499,1.43412 -3.00498,1.43413 -0.41861,0.50146 -0.41861,0.50146 -1.11745,3.70416 -1.11744,3.70417 -3.31637,10.98021 -3.31638,10.98021 -1.44953,4.894789 -1.44954,4.894792 -2.86532,9.789584 -2.86532,9.789583 -0.97354,3.439583 -0.97354,3.439584 0.28124,0.734706 0.28125,0.734707 0.59916,0.246407 0.59916,0.246408 0.53422,-0.110926 0.53422,-0.110925 z m 12.55667,-31.150467 0.21924,-0.745177 2.44298,-8.466666 2.44298,-8.46667 0.18092,-0.33391 0.18093,-0.33392 2.57255,6.26152 2.57254,6.26152 0.15516,0.61822 0.15517,0.61822 -1.15251,0.49632 -1.15251,0.49631 -4.22709,2.085986 -4.22708,2.085987 -0.19126,0.08372 -0.19125,0.08372 z m 234.57162,21.517899 1.32292,-0.35252 0.89015,-0.460531 0.89016,-0.460532 1.16007,-1.06932 1.16008,-1.069319 0.79792,-1.39462 0.79792,-1.394619 0.58448,-2.077682 0.58448,-2.077682 0.005,-11.509376 0.005,-11.509371 -0.58301,-2.57008 -0.58301,-2.57008 -0.70706,-2.06013 -0.70705,-2.06013 -1.05726,-2.11667 -1.05725,-2.11666 -1.61158,-2.38125 -1.61159,-2.38125 -2.52189,-2.52027 -2.5219,-2.52027 -2.24896,-1.47873 -2.24895,-1.47872 -1.5875,-0.7952 -1.5875,-0.7952 -1.98438,-0.67963 -1.98437,-0.67963 -2.29721,-0.33128 -2.29721,-0.33128 -2.06842,0.44874 -2.06842,0.44875 -1.3258,0.64851 -1.32581,0.64852 -1.49144,1.49144 -1.49143,1.49143 -0.81604,1.62891 -0.81604,1.62891 -0.45433,1.5875 -0.45432,1.5875 -0.0951,11.3135 -0.0951,11.31351 0.43065,2.31253 0.43064,2.31254 0.67369,1.984375 0.67369,1.984375 1.07801,2.116666 1.07802,2.116667 1.12319,1.5875 1.12318,1.5875 1.34894,1.5875 1.34895,1.5875 1.77719,1.549394 1.7772,1.549394 2.36989,1.603122 2.36989,1.603122 2.39261,1.110568 2.39261,1.110569 1.45521,0.480025 1.45521,0.480025 1.45521,0.323008 1.45521,0.323008 1.98437,0.02397 1.98438,0.02397 z m -8.39024,-12.090957 -1.2465,-0.203437 -1.93806,-0.932171 -1.93807,-0.93217 -1.48637,-1.101215 -1.48637,-1.101214 -1.30848,-1.628039 -1.30849,-1.628039 -0.68142,-1.190625 -0.68142,-1.190625 -0.6152,-1.71979 -0.61521,-1.71979 v -10.71563 -10.71562 l 0.33884,-0.92605 0.33885,-0.92604 0.61996,-0.70354 0.61995,-0.70355 0.87586,-0.45292 0.87585,-0.45292 1.47264,0.15175 1.47263,0.15176 2.38125,1.182 2.38125,1.18199 1.51617,1.54251 1.51617,1.54251 0.68806,0.92604 0.68807,0.92604 0.87486,1.72023 0.87485,1.72023 0.4729,1.45477 0.47289,1.45477 0.10792,9.80992 0.10791,9.809915 -0.2875,1.567166 -0.28751,1.567166 -0.47832,0.64511 -0.47833,0.64511 -0.64511,0.453377 -0.64511,0.453378 -0.66146,0.12054 -0.66146,0.120541 z m -176.85758,-4.987989 2.68532,-0.768995 1.47894,-0.416692 1.47895,-0.416692 0.42846,-0.997125 0.42845,-0.997126 1.88785,-5.953126 1.88784,-5.95312 3.9642,-12.30313 3.9642,-12.30312 2.12785,-6.4823 2.12784,-6.48229 1.29956,-3.9961 1.29955,-3.99611 -0.26747,-0.7035 -0.26747,-0.7035 -0.66214,-0.30169 -0.66214,-0.30169 -4.9447,0.95498 -4.9447,0.95498 -0.34078,0.34215 -0.34077,0.34215 -1.88267,6.21771 -1.88266,6.21771 -4.08948,13.62604 -4.08947,13.62604 -0.14733,0.39687 -0.14732,0.39688 -0.35026,-0.92604 -0.35026,-0.92604 -0.67084,-1.85209 -0.67083,-1.85208 -2.94446,-8.33438 -2.94447,-8.33437 -1.85136,-5.15938 -1.85136,-5.15937 -0.38366,-0.59531 -0.38367,-0.59532 h -0.89564 -0.89565 l -3.79461,1.34872 -3.7946,1.34872 -0.69114,0.25195 -0.69113,0.25195 -0.30106,0.66074 -0.30105,0.66074 v 0.41022 0.41021 l 4.32505,11.28515 4.32505,11.28515 2.93013,7.67291 2.93012,7.67292 2.01655,5.291666 2.01655,5.291667 0.43614,0.330729 0.43613,0.330729 h 0.63756 0.63755 z m 138.4092,-1.231489 1.58012,-0.427961 0.80113,-0.404473 0.80112,-0.404472 1.32292,-1.008869 1.32291,-1.008869 0.85505,-1.412186 0.85504,-1.412187 0.53402,-2.08799 0.53402,-2.08799 -0.003,-2.14049 -0.003,-2.14049 -0.4957,-2.40178 -0.49569,-2.40178 -0.83253,-1.67797 -0.83253,-1.67797 -1.16793,-1.6367 -1.16792,-1.63671 -1.53527,-1.30334 -1.53527,-1.30335 -1.45521,-1.0664 -1.45521,-1.06639 -2.91042,-1.47528 -2.91041,-1.47529 -3.43959,-1.51531 -3.43958,-1.5153 -1.73206,-0.87181 -1.73207,-0.8718 -1.40107,-1.10749 -1.40108,-1.10748 -0.49907,-1.09913 -0.49907,-1.09913 -0.005,-1.32292 -0.005,-1.32292 0.46261,-0.92604 0.46261,-0.92604 1.19063,-0.6159 1.19062,-0.6159 3.175,0.12609 3.175,0.1261 1.4564,0.51935 1.45639,0.51935 1.71861,0.85889 1.7186,0.85889 1.85208,1.40077 1.85209,1.40077 1.45521,1.34228 1.4552,1.34227 0.86192,0.006 0.86192,0.007 2.57766,-2.66229 2.57767,-2.66229 0.19089,-0.51534 0.19088,-0.51535 -0.26843,-0.72497 -0.26844,-0.72497 -1.11307,-1.00971 -1.11308,-1.00972 -1.54275,-1.31176 -1.54275,-1.31177 -1.97685,-1.33396 -1.97686,-1.33397 -2.6981,-1.29884 -2.69811,-1.29885 -2.2518,-0.64118 -2.25181,-0.64119 -2.75175,-0.46012 -2.75176,-0.46013 -2.40477,0.15433 -2.40477,0.15432 -1.5875,0.41689 -1.5875,0.4169 -1.5875,0.77637 -1.5875,0.77638 -1.38461,1.36987 -1.38461,1.36986 -0.69175,1.1804 -0.69176,1.1804 -0.50737,1.76086 -0.50737,1.76087 -0.15851,2.24896 -0.15852,2.24896 0.42864,2.51354 0.42864,2.51354 1.09799,2.24001 1.098,2.24 2.01248,1.99333 2.01249,1.99333 2.19325,1.28283 2.19324,1.28284 2.03697,0.86809 2.03696,0.86809 3.70417,1.51682 3.70417,1.51683 2.30566,1.2028 2.30565,1.2028 1.37426,1.34569 1.37426,1.3457 0.48146,1.0598 0.48146,1.05979 0.006,1.40221 0.006,1.4022 -0.38522,0.74493 -0.38522,0.74493 -1.00384,0.48199 -1.00384,0.48198 -1.51512,0.11421 -1.51512,0.11421 -2.16399,-0.31642 -2.16399,-0.31641 -2.27402,-0.65734 -2.27401,-0.65733 -2.43352,-1.15091 -2.43351,-1.15091 -1.5341,-1.01554 -1.5341,-1.01555 -1.81948,-1.52135 -1.81949,-1.52135 h -0.81482 -0.81482 l -2.98923,2.98922 -2.98922,2.98923 v 0.81873 0.81873 l 1.65364,1.53215 1.65365,1.53214 2.51354,1.6474 2.51354,1.6474 2.39157,1.205795 2.39156,1.205799 2.57065,0.930538 2.57065,0.930537 2.57841,0.646871 2.57841,0.64687 2.38125,0.411204 2.38125,0.411204 0.79375,0.115274 0.79375,0.115273 2.77813,-0.103238 2.77812,-0.103238 z m -102.04573,-5.944257 4.42185,-0.53641 0.59531,-0.66897 0.59531,-0.66897 v -27.22011 -27.2201 l -0.25927,-0.68194 -0.25927,-0.68193 -0.64506,-0.29391 -0.64506,-0.29391 -3.92431,0.44749 -3.92432,0.4475 -0.86192,0.26773 -0.86193,0.26773 -0.26255,0.49059 -0.26256,0.49058 v 27.61578 27.61578 l 0.33073,0.41701 0.33073,0.41701 0.39688,0.14184 0.39687,0.14184 0.20836,0.0209 0.20836,0.0209 z m 39.87602,-1.95375 3.70416,-0.10398 1.85209,-0.40954 1.85208,-0.40954 1.52805,-0.5304 1.52805,-0.5304 1.63987,-0.87185 1.63988,-0.87184 1.64958,-1.54127 1.64958,-1.54127 1.06882,-1.69235 1.06882,-1.69236 0.64203,-1.92575 0.64202,-1.92575 0.30661,-2.12467 0.3066,-2.12466 -0.11218,-10.31075 -0.11218,-10.31075 -0.57086,-2.1981 -0.57086,-2.19809 -1.1213,-2.25159 -1.1213,-2.25158 -1.39933,-1.68586 -1.39932,-1.68585 -1.77921,-1.34973 -1.7792,-1.34972 -2.11667,-1.0268 -2.11667,-1.0268 -2.91041,-0.74836 -2.91042,-0.74836 h -11.70032 -11.70033 l -0.6028,0.60261 -0.6028,0.60262 -0.0698,27.35031 -0.0698,27.3503 0.26436,0.69533 0.26437,0.69533 0.59725,0.22094 0.59725,0.22093 9.13004,-0.0982 9.13003,-0.0982 z m -7.73906,-10.93684 -3.77032,-0.0813 v -17.891 -17.891 l 5.6224,0.1481 5.62239,0.14811 1.64418,0.52155 1.64417,0.52155 1.17393,0.68797 1.17393,0.68797 1.07568,1.22203 1.07568,1.22203 0.60413,1.49413 0.60414,1.49413 v 10.71562 10.71563 l -0.59324,1.28572 -0.59325,1.28572 -1.08953,1.05736 -1.08953,1.05735 -1.35993,0.61587 -1.35994,0.61588 -2.06966,0.28219 -2.06967,0.2822 -1.23763,-0.0583 -1.23762,-0.0583 z"
       id="path1" /></g></svg>
